<svg version="1.1" id="el_lQ-OWYTeH" xmlns="http://www.w3.org/2000/svg" xmlns:xlink="http://www.w3.org/1999/xlink" x="0px" y="0px" viewBox="0 0 400 292" style="enable-background:new 0 0 400.2 292.1;" xml:space="preserve"><style>@-webkit-keyframes el_2c5mGUtljvg_Animation{0%{opacity: 0;}40%{opacity: 0;}60%{opacity: 1;}100%{opacity: 1;}}@keyframes el_2c5mGUtljvg_Animation{0%{opacity: 0;}40%{opacity: 0;}60%{opacity: 1;}100%{opacity: 1;}}@-webkit-keyframes el_w0iraHXiVB7_Animation{0%{opacity: 1;}40%{opacity: 1;}60%{opacity: 0;}100%{opacity: 0;}}@keyframes el_w0iraHXiVB7_Animation{0%{opacity: 1;}40%{opacity: 1;}60%{opacity: 0;}100%{opacity: 0;}}@-webkit-keyframes el_DBRMpYsNA6N_Animation{0%{opacity: 1;}40%{opacity: 1;}60%{opacity: 0;}100%{opacity: 0;}}@keyframes el_DBRMpYsNA6N_Animation{0%{opacity: 1;}40%{opacity: 1;}60%{opacity: 0;}100%{opacity: 0;}}@-webkit-keyframes el_r3RApP0caYT_B2nUaaR4E_Animation{0%{-webkit-transform: translate(0px, 0px);transform: translate(0px, 0px);}20%{-webkit-transform: translate(0px, -9px);transform: translate(0px, -9px);}60%{-webkit-transform: translate(0px, -9px);transform: translate(0px, -9px);}80%{-webkit-transform: translate(0px, 0px);transform: translate(0px, 0px);}100%{-webkit-transform: translate(0px, 0px);transform: translate(0px, 0px);}}@keyframes el_r3RApP0caYT_B2nUaaR4E_Animation{0%{-webkit-transform: translate(0px, 0px);transform: translate(0px, 0px);}20%{-webkit-transform: translate(0px, -9px);transform: translate(0px, -9px);}60%{-webkit-transform: translate(0px, -9px);transform: translate(0px, -9px);}80%{-webkit-transform: translate(0px, 0px);transform: translate(0px, 0px);}100%{-webkit-transform: translate(0px, 0px);transform: translate(0px, 0px);}}@-webkit-keyframes el_wI9bVzau-5_0j64W_bZb_Animation{0%{-webkit-transform: rotate(0deg);transform: rotate(0deg);}20%{-webkit-transform: rotate(0deg);transform: rotate(0deg);}32%{-webkit-transform: rotate(180deg);transform: rotate(180deg);}40%{-webkit-transform: rotate(0deg);transform: rotate(0deg);}100%{-webkit-transform: rotate(0deg);transform: rotate(0deg);}}@keyframes el_wI9bVzau-5_0j64W_bZb_Animation{0%{-webkit-transform: rotate(0deg);transform: rotate(0deg);}20%{-webkit-transform: rotate(0deg);transform: rotate(0deg);}32%{-webkit-transform: rotate(180deg);transform: rotate(180deg);}40%{-webkit-transform: rotate(0deg);transform: rotate(0deg);}100%{-webkit-transform: rotate(0deg);transform: rotate(0deg);}}#el_lQ-OWYTeH *{-webkit-animation-duration: 2.5s;animation-duration: 2.5s;-webkit-animation-iteration-count: infinite;animation-iteration-count: infinite;-webkit-animation-timing-function: cubic-bezier(0, 0, 1, 1);animation-timing-function: cubic-bezier(0, 0, 1, 1);}#el_wI9bVzau-5{fill: #E2AF76;}#el_081IAnLsuq{display: none;}#el_2Ci_kstOQE{display: inline;fill: #BDCBC7;}#el_tQnCEGd3aj{display: inline;}#el_lBxUa6WYq0{fill: #BDCBC7;}#el_-ra1XZ63VS{fill: #E0E5DA;}#el_EJGyG6r3Tf{fill: #96BA74;}#el_Xn3SGp9htQ{fill: #31542D;}#el_h6QbFT_rC6{fill: #88A1AF;}#el_5oyTXShXoy{fill: #495559;}#el_rYvRZwPhD6{fill: #876866;}#el_Kk37T8Nkl5{fill: #4F3733;}#el_hPBazAExfo{fill: #361C0A;}#el_p3cs_E_o-0{fill: #7C4627;}#el_-J1Reup1E9{fill: #513A2B;}#el_wZew9BE47kb{fill: #E0E5DA;}#el_f27szja2isL{display: inline;fill: #513A2B;}#el_kcnhdn0Kpen{display: inline;fill: #7C4627;}#el_zrSJ-w1h9m2{display: inline;fill: #7C4627;}#el_sKeIO1Br5SR{display: inline;fill: #7C4627;}#el_h4gxPCProFD{display: inline;fill: #361C0A;}#el_DR25fUP7aF9{display: inline;fill: #7C4627;}#el_LliLecmprLH{display: inline;}#el_FdxgK6Hw_vS{fill: #513A2B;}#el_TArOcbXv9Rs{fill: #513A2B;}#el_9BHz8lDHle7{fill: #BDCBC7;}#el_BoJBBl9NJd6{fill: #E0E5DA;}#el_49Yukxr2zky{fill: #D46456;}#el_6383yNT6swX{fill: #6F2917;}#el_JmcI5YDeYvV{fill: #E0E5DA;}#el_qGwQeE_06Z6{fill: #E0E5DA;}#el_n5H38tUS2qb{fill: #BDCBC7;}#el_M87SjABaz1J{fill: #E0E5DA;}#el_DBRMpYsNA6N{fill: #876866;-webkit-animation-name: el_DBRMpYsNA6N_Animation;animation-name: el_DBRMpYsNA6N_Animation;}#el_w0iraHXiVB7{fill: #4F3733;-webkit-animation-name: el_w0iraHXiVB7_Animation;animation-name: el_w0iraHXiVB7_Animation;}#el_Wo-Eo54JTBa{fill: #E0E5DA;}#el_-NQLaqpMBwK{fill: #E0E5DA;}#el_GxpEJx5V4WJ{fill: #BDCBC7;}#el_UPWUhJxc7dq{fill: #E0E5DA;}#el_7k4gnUU-OwP{fill: #88A1AF;}#el_ZcXOMruIlHh{fill: #495559;}#el_nJo7roko9Lw{fill: #E0E5DA;}#el_6mfcAhajYjM{fill: #E0E5DA;}#el_UT3cb2zH8XI{fill: #BDCBC7;}#el_8UFQUWYr7kU{fill: #E0E5DA;}#el_iy_vPerVd8C{fill: #96BA74;}#el_NZh5ILG3nTM{fill: #31542D;}#el_hzV4Mdyl8an{fill: #E0E5DA;}#el_JYNHSw8x_iX{fill: #E0E5DA;}#el_OV8VQlzv8PW{fill: #BFC4C2;}#el_O7l3cEC4W8e{fill: #E0E5DA;}#el_gQn9zrTzxTG{fill: #CCCCCC;}#el_1_HCt-VGHJj{fill: #CCCCCC;}#el_nWZ989gRvQz{fill: #808080;}#el_Q4GPy1Tdezv{fill: #808080;}#el_HZ5axaWeE7R{fill: #999999;}#el_vVD7Dtdtwyb{fill: #999999;}#el_kcbiYYxj65A{fill: #999999;}#el_utTfZYwPG-Q{fill: #808080;}#el_Yi4RHGYzlT8{fill: #B3B3B3;}#el_DhrhDvj-bPC{fill: #CCCCCC;}#el_f4vtJdbPjba{fill: #B3B3B3;}#el_xpU1Bd-dAVX{fill: #CCCCCC;}#el_y4eLUYVU6IT{fill: #B3B3B3;}#el_ee5wy_in7Pa{fill: #CCCCCC;}#el_1In29KaTT6j{fill: #B3B3B3;}#el_RZbwkQlXhan{fill: #CCCCCC;}#el_plknhS-Gg1Q{fill: #B3B3B3;}#el_9dQnTvBnhca{fill: #CCCCCC;}#el_TjWxFHIsaUY{fill: #B3B3B3;}#el_e-uAzQzNZW4{fill: #CCCCCC;}#el_WW9QgrArkDD{fill: #B3B3B3;}#el_05UpbpRr7NI{fill: #CCCCCC;}#el_i-sR0J5dngP{fill: #B3B3B3;}#el_wos26tCcRGg{fill: #CCCCCC;}#el_2RRbQpLhOeZ{fill: #7C4627;}#el_nra6mZOieL8{fill: #7C4627;}#el_48-GYWywqpN{fill: #361C0A;}#el_wescKst0m_5{fill: #7C4627;}#el_vyucgM5BNZz{fill: #7C4627;}#el_7Cm2lfk5EZR{fill: #7C4627;}#el_5Dmzd4Y0Lp1{fill: #7C4627;}#el_3I3rzA1UpVF{display: none;}#el_59XMlvsUXZX{display: inline;fill: #9BA09A;}#el_SFzipNu0Vd8{display: inline;fill: #9BA09A;}#el_HcuqB8tVlvs{fill: #CCCCCC;}#el_hpDu4J0auGv{fill: #FF6A2E;}#el_TxAO47llB-N{fill: #F24802;}#el__f7TsdVpz1H{fill: #84A6AD;}#el_g74Nxp4YLTC{fill: #306687;}#el_HcasDZA1FIF{fill: #27A7C4;}#el_XbjN1muVlye{fill: #2D8CA5;}#el_3MZJRvbaVjI{fill: #227B93;}#el_WmYdxCH2RT6{fill: #84A6AD;}#el_NEiXoiKU_Jn{fill: #990000;}#el_VBC97RqxBoJ{fill: #F73131;}#el_9ovSjz4GC1D{fill: #D10D0D;}#el_qiKlRf6NGIx{fill: #B70404;}#el_E5sI8SZi8SU{fill: #84A6AD;}#el_A2d5q6CANeT{fill: #599316;}#el_zdwURjYXzpx{fill: #8FDD3C;}#el_h0nErxhnqn2{fill: #79C430;}#el_HAKgvs2sGzo{fill: #67AD1E;}#el_2c5mGUtljvg{fill: #4F3733;-webkit-animation-name: el_2c5mGUtljvg_Animation;animation-name: el_2c5mGUtljvg_Animation;}#el_wI9bVzau-5_0j64W_bZb{-webkit-animation-name: el_wI9bVzau-5_0j64W_bZb_Animation;animation-name: el_wI9bVzau-5_0j64W_bZb_Animation;-webkit-transform-origin: 50% 50%;transform-origin: 50% 50%;transform-box: fill-box;}#el_r3RApP0caYT_B2nUaaR4E{-webkit-animation-name: el_r3RApP0caYT_B2nUaaR4E_Animation;animation-name: el_r3RApP0caYT_B2nUaaR4E_Animation;-webkit-transform-origin: 50% 50%;transform-origin: 50% 50%;transform-box: fill-box;}#el_DBRMpYsNA6N_d4aOOtAjW{-webkit-transform-origin: 50% 50%;transform-origin: 50% 50%;transform-box: fill-box;}</style>

<g id="el_wI9bVzau-5_0j64W_bZb" data-animator-group="true" data-animator-type="1"><path d="M367,8.1c-7.2-7.2-18.9-7.2-26.1,0s-7.2,18.9,0,26.1s18.9,7.2,26.1,0C374.2,27,374.2,15.3,367,8.1z M363.6,28.7&#10;&#9;L358,23c0.5-1.2,0.5-2.5,0-3.7l5.7-5.7C367.1,18.1,367.1,24.3,363.6,28.7z M361.5,11.5l-5.7,5.7c-1.2-0.5-2.5-0.5-3.7,0l-5.7-5.7&#10;&#9;C350.9,8.1,357.1,8.1,361.5,11.5z M344.4,13.7l5.7,5.7c-0.5,1.2-0.5,2.5,0,3.7l-5.7,5.7C340.9,24.3,340.9,18.1,344.4,13.7z&#10;&#9; M346.5,30.8l5.7-5.7c1.2,0.5,2.5,0.5,3.7,0l5.7,5.7C357.1,34.3,350.9,34.3,346.5,30.8z" id="el_wI9bVzau-5"/></g>
<g id="el_081IAnLsuq">
	<path id="el_2Ci_kstOQE" d="M584.6,78.3h-55.7c-6.1,0-11.1,5.5-11.1,12.2c0,6.8,5,12.2,11.1,12.2V415&#10;&#9;&#9;c0,16.9,12.5,30.6,27.8,30.6s27.8-13.7,27.8-30.6V102.8c6.1,0,11.1-5.5,11.1-12.2C595.7,83.8,590.7,78.3,584.6,78.3z"/>
	<g id="el_tQnCEGd3aj">
		<path id="el_lBxUa6WYq0" d="M475.8,90.6c0,6.8-5,12.2-11.1,12.2v312.2c0,16.9-12.5,30.6-27.8,30.6s-27.8-13.7-27.8-30.6&#10;&#9;&#9;&#9;V102.8c-6.1,0-11.1-5.5-11.1-12.2c0-6.8,5-12.2,11.1-12.2h55.7C470.8,78.3,475.8,83.8,475.8,90.6z M347.8,78.3h-55.7&#10;&#9;&#9;&#9;c-6.1,0-11.1,5.5-11.1,12.2c0,6.8,5,12.2,11.1,12.2V415c0,16.9,12.5,30.6,27.8,30.6s27.8-13.7,27.8-30.6V102.8&#10;&#9;&#9;&#9;c6.1,0,11.1-5.5,11.1-12.2C358.9,83.8,353.9,78.3,347.8,78.3z M230.9,78.3h-55.7c-6.1,0-11.1,5.5-11.1,12.2&#10;&#9;&#9;&#9;c0,6.8,5,12.2,11.1,12.2V415c0,16.9,12.5,30.6,27.8,30.6c15.4,0,27.8-13.7,27.8-30.6V102.8c6.1,0,11.1-5.5,11.1-12.2&#10;&#9;&#9;&#9;C242.1,83.8,237.1,78.3,230.9,78.3z"/>
		<path id="el_-ra1XZ63VS" d="M436.8,434.6L436.8,434.6c-9.2,0-16.7-7.5-16.7-16.7V256.5h33.4v161.4&#10;&#9;&#9;&#9;C453.5,427.1,446.1,434.6,436.8,434.6z M336.7,417.9V256.5h-33.4v161.4c0,9.2,7.5,16.7,16.7,16.7l0,0&#10;&#9;&#9;&#9;C329.2,434.6,336.7,427.1,336.7,417.9z M219.8,417.9V256.5h-33.4v161.4c0,9.2,7.5,16.7,16.7,16.7l0,0&#10;&#9;&#9;&#9;C212.3,434.6,219.8,427.1,219.8,417.9z"/>
		<path id="el_EJGyG6r3Tf" d="M436.8,434.6L436.8,434.6c-9.2,0-16.7-7.5-16.7-16.7V300.9h33.4v116.9&#10;&#9;&#9;&#9;C453.5,427.1,446.1,434.6,436.8,434.6z"/>
		<path id="el_Xn3SGp9htQ" d="M436.8,434.6L436.8,434.6c-9.2,0-16.7-7.5-16.7-16.7v-94.6h33.4v94.6&#10;&#9;&#9;&#9;C453.5,427.1,446.1,434.6,436.8,434.6z"/>
		<path id="el_h6QbFT_rC6" d="M320,434.6L320,434.6c-9.2,0-16.7-7.5-16.7-16.7V300.9h33.4v116.9&#10;&#9;&#9;&#9;C336.7,427.1,329.2,434.6,320,434.6z"/>
		<path id="el_5oyTXShXoy" d="M320,434.6L320,434.6c-9.2,0-16.7-7.5-16.7-16.7v-94.6h33.4v94.6&#10;&#9;&#9;&#9;C336.7,427.1,329.2,434.6,320,434.6z"/>
		<path id="el_rYvRZwPhD6" d="M203.1,434.6L203.1,434.6c-9.2,0-16.7-7.5-16.7-16.7V300.9h33.4v116.9&#10;&#9;&#9;&#9;C219.8,427.1,212.3,434.6,203.1,434.6z"/>
		<path id="el_Kk37T8Nkl5" d="M203.1,434.6L203.1,434.6c-9.2,0-16.7-7.5-16.7-16.7v-94.6h33.4v94.6&#10;&#9;&#9;&#9;C219.8,427.1,212.3,434.6,203.1,434.6z"/>
		<path id="el_hPBazAExfo" d="M672.6,467.9h-13.8V278.8h13.8c15.3,0,27.7-10,27.7-22.3c0-12.3-12.4-22.3-27.7-22.3H91&#10;&#9;&#9;&#9;c-15.3,0-27.7,10-27.7,22.3c0,12.3,12.4,22.3,27.7,22.3h13.8V468H91c-15.3,0-27.7,10-27.7,22.3s12.4,22.3,27.7,22.3h13.8h55.4&#10;&#9;&#9;&#9;h443.2h55.4h13.8c15.3,0,27.7-10,27.7-22.3C700.3,477.9,687.9,467.9,672.6,467.9z M141.2,467.9V278.8h479.1V468L141.2,467.9&#10;&#9;&#9;&#9;L141.2,467.9z"/>
		<path id="el_p3cs_E_o-0" d="M91,467.9h581.7c15.3,0,27.7,10,27.7,22.3H63.3C63.3,477.9,75.7,467.9,91,467.9z M91,234.1&#10;&#9;&#9;&#9;h581.7c15.3,0,27.7,10,27.7,22.3H63.3C63.3,244.1,75.7,234.1,91,234.1z"/>
		<path id="el_-J1Reup1E9" d="M230.9,245.3h-55.7c-6.1,0-11.1-5-11.1-11.1l0,0H242l0,0&#10;&#9;&#9;&#9;C242.1,240.3,237.1,245.3,230.9,245.3z M358.9,234.1L358.9,234.1H281l0,0c0,6.1,5,11.1,11.1,11.1h55.7&#10;&#9;&#9;&#9;C353.9,245.3,358.9,240.3,358.9,234.1z M475.8,234.1L475.8,234.1h-77.9l0,0c0,6.1,5,11.1,11.1,11.1h55.7&#10;&#9;&#9;&#9;C470.8,245.3,475.8,240.3,475.8,234.1z"/>
		<path id="el_wZew9BE47kb" d="M219.8,245.3h-33.4V100.6h33.4V245.3z M225.4,78.3h-44.6c-3.1,0-5.6,2.5-5.6,5.6l0,0&#10;&#9;&#9;&#9;c0,3.1,2.5,5.6,5.6,5.6h44.5c3.1,0,5.6-2.5,5.6-5.6l0,0C230.9,80.8,228.4,78.3,225.4,78.3z M336.7,100.6h-33.4v144.7h33.4V100.6z&#10;&#9;&#9;&#9; M342.2,78.3h-44.5c-3.1,0-5.6,2.5-5.6,5.6l0,0c0,3.1,2.5,5.6,5.6,5.6h44.5c3.1,0,5.6-2.5,5.6-5.6l0,0&#10;&#9;&#9;&#9;C347.8,80.8,345.3,78.3,342.2,78.3z M453.5,100.6h-33.4v144.7h33.4V100.6z M459.1,78.3h-44.5c-3.1,0-5.6,2.5-5.6,5.6l0,0&#10;&#9;&#9;&#9;c0,3.1,2.5,5.6,5.6,5.6h44.5c3.1,0,5.6-2.5,5.6-5.6l0,0C464.7,80.8,462.2,78.3,459.1,78.3z"/>
	</g>
	<path id="el_f27szja2isL" d="M584.6,245.3h-55.7c-6.1,0-11.1-5-11.1-11.1l0,0h77.9l0,0C595.7,240.3,590.7,245.3,584.6,245.3&#10;&#9;&#9;z"/>
	<path id="el_kcnhdn0Kpen" d="M127,423.4V278.8h-22.3v167l0,0C117,445.6,127,435.8,127,423.4z"/>
	<path d="M502.8,176.4" id="el_zrSJ-w1h9m2"/>
	<path d="M527.8,416.4" id="el_sKeIO1Br5SR"/>
	<path d="M461.9,278.8" id="el_h4gxPCProFD"/>
	<path id="el_DR25fUP7aF9" d="M642.5,423.4V278.8h-22.3v167l0,0C632.5,445.6,642.5,435.8,642.5,423.4z"/>
	<g id="el_LliLecmprLH">
	</g>
</g>
<g id="el_5vcTeRSr_cB">
	<path id="el_FdxgK6Hw_vS" d="M212.4,185.2h-22.3c-2.4,0-4.4-2-4.4-4.4l0,0h31.2l0,0C216.9,183.2,214.9,185.2,212.4,185.2z&#10;&#9;&#9; M263.6,180.7L263.6,180.7h-31.2l0,0c0,2.4,2,4.4,4.4,4.4h22.3C261.6,185.2,263.6,183.2,263.6,180.7z M310.4,180.7L310.4,180.7&#10;&#9;&#9;h-31.2l0,0c0,2.4,2,4.4,4.4,4.4H306C308.4,185.2,310.4,183.2,310.4,180.7z"/>
	<path id="el_TArOcbXv9Rs" d="M353.9,185.2h-22.3c-2.4,0-4.4-2-4.4-4.4l0,0h31.2l0,0C358.4,183.2,356.4,185.2,353.9,185.2z"/>
</g>
<g id="el_ZIlFX6PlYPj">
	<path id="el_9BHz8lDHle7" d="M354,118.4h-22.3c-2.4,0-4.4,2.2-4.4,4.9c0,2.7,2,4.9,4.4,4.9V253c0,6.8,5,12.2,11.1,12.2&#10;&#9;&#9;s11.1-5.5,11.1-12.2V128.2c2.4,0,4.4-2.2,4.4-4.9C358.4,120.6,356.4,118.4,354,118.4z"/>
	<path id="el_BoJBBl9NJd6" d="M349.5,254.2v-64.6h-13.4v64.6c0,3.7,3,6.7,6.7,6.7l0,0C346.5,260.9,349.5,257.9,349.5,254.2z"/>
	<path id="el_49Yukxr2zky" d="M342.8,260.9L342.8,260.9c-3.7,0-6.7-3-6.7-6.7v-46.8h13.4v46.8&#10;&#9;&#9;C349.5,257.9,346.5,260.9,342.8,260.9z"/>
	<path id="el_6383yNT6swX" d="M342.8,260.9L342.8,260.9c-3.7,0-6.7-3-6.7-6.7v-37.8h13.4v37.8&#10;&#9;&#9;C349.5,257.9,346.5,260.9,342.8,260.9z"/>
	<g id="el_GEY3J9BpPBp">
		<polygon points="336.1,174.1 336.1,185.2 336.1,207.4 349.4,207.4 349.4,185.2 349.5,185.2 349.5,127.3 336.1,127.3 &#10;&#9;&#9;&#9;&#9;&#9;" id="el_JmcI5YDeYvV"/>
		<path d="M351.7,118.4h-17.8c-1.2,0-2.2,1-2.2,2.2c0,1.2,1,2.2,2.2,2.2h17.8c1.2,0,2.2-1,2.2-2.2&#10;&#9;&#9;&#9;C353.9,119.4,352.9,118.4,351.7,118.4z" id="el_qGwQeE_06Z6"/>
	</g>
</g>
<g id="el_r3RApP0caYT_B2nUaaR4E" data-animator-group="true" data-animator-type="0"><g id="el_r3RApP0caYT">
	<path id="el_n5H38tUS2qb" d="M211.3,118.4H189c-2.4,0-4.4,2.2-4.4,4.9c0,2.7,2,4.9,4.4,4.9V253c0,6.8,5,12.2,11.1,12.2&#10;&#9;&#9;s11.1-5.5,11.1-12.2V128.2c2.4,0,4.4-2.2,4.4-4.9C215.7,120.6,213.7,118.4,211.3,118.4z"/>
	<path id="el_M87SjABaz1J" d="M206.8,254.2v-64.6h-13.4v64.6c0,3.7,3,6.7,6.7,6.7l0,0C203.8,260.9,206.8,257.9,206.8,254.2z"/>
	<path id="el_DBRMpYsNA6N" d="M200.1,260.9L200.1,260.9c-3.7,0-6.7-3-6.7-6.7v-46.8h13.4v46.8&#10;&#9;&#9;C206.8,257.9,203.8,260.9,200.1,260.9z"/>
	<path id="el_w0iraHXiVB7" d="M200.1,260.9L200.1,260.9c-3.7,0-6.7-3-6.7-6.7v-37.8h13.4v37.8&#10;&#9;&#9;C206.8,257.9,203.8,260.9,200.1,260.9z"/>
	<g id="el_o-_4MAK29Tg">
		<path d="M209,118.4h-17.8c-1.2,0-2.2,1-2.2,2.2c0,1.2,1,2.2,2.2,2.2H209c1.2,0,2.2-1,2.2-2.2&#10;&#9;&#9;&#9;C211.2,119.4,210.2,118.4,209,118.4z" id="el_Wo-Eo54JTBa"/>
		<polygon points="193.4,185.2 193.4,207.4 206.8,207.4 206.8,185.2 206.8,127.3 193.4,127.3 &#9;&#9;" id="el_-NQLaqpMBwK"/>
	</g>
</g></g>
<g id="el_o_qy7dBXpag">
	<path id="el_GxpEJx5V4WJ" d="M259.2,118.4h-22.3c-2.4,0-4.4,2.2-4.4,4.9c0,2.7,2,4.9,4.4,4.9V253c0,6.8,5,12.2,11.1,12.2&#10;&#9;&#9;s11.1-5.5,11.1-12.2V128.2c2.4,0,4.4-2.2,4.4-4.9C263.7,120.6,261.7,118.4,259.2,118.4z"/>
	<path id="el_UPWUhJxc7dq" d="M254.7,254.2v-64.6h-13.4v64.6c0,3.7,3,6.7,6.7,6.7l0,0C251.7,260.9,254.7,257.9,254.7,254.2z"/>
	<path id="el_7k4gnUU-OwP" d="M248,260.9L248,260.9c-3.7,0-6.7-3-6.7-6.7v-46.8h13.4v46.8C254.7,257.9,251.7,260.9,248,260.9&#10;&#9;&#9;z"/>
	<path id="el_ZcXOMruIlHh" d="M248,260.9L248,260.9c-3.7,0-6.7-3-6.7-6.7v-37.8h13.4v37.8C254.7,257.9,251.7,260.9,248,260.9&#10;&#9;&#9;z"/>
	<polygon points="241.3,127.3 241.3,178.9 241.3,185.2 241.3,207.4 254.6,207.4 254.6,194.7 254.7,194.7 254.7,185.2 &#10;&#9;&#9;254.7,180.6 254.7,127.3 &#9;" id="el_nJo7roko9Lw"/>
	<path d="M256.9,118.4h-17.8c-1.2,0-2.2,1-2.2,2.2c0,1.2,1,2.2,2.2,2.2h17.8c1.2,0,2.2-1,2.2-2.2&#10;&#9;&#9;C259.2,119.4,258.1,118.4,256.9,118.4z" id="el_6mfcAhajYjM"/>
</g>
<g id="el_IQWbO9GIZOP">
	<path id="el_UT3cb2zH8XI" d="M306.6,118.4h-22.3c-2.4,0-4.4,2.2-4.4,4.9c0,2.7,2,4.9,4.4,4.9V253c0,6.8,5,12.2,11.1,12.2&#10;&#9;&#9;s11.1-5.5,11.1-12.2V128.2c2.4,0,4.4-2.2,4.4-4.9C311,120.6,309,118.4,306.6,118.4z"/>
	<path id="el_8UFQUWYr7kU" d="M294.8,260.9L294.8,260.9c-3.7,0-6.7-3-6.7-6.7v-64.6h13.4v64.6&#10;&#9;&#9;C301.4,257.9,298.4,260.9,294.8,260.9z"/>
	<path id="el_iy_vPerVd8C" d="M294.8,260.9L294.8,260.9c-3.7,0-6.7-3-6.7-6.7v-46.8h13.4v46.8&#10;&#9;&#9;C301.4,257.9,298.4,260.9,294.8,260.9z"/>
	<path id="el_NZh5ILG3nTM" d="M294.8,260.9L294.8,260.9c-3.7,0-6.7-3-6.7-6.7v-37.8h13.4v37.8&#10;&#9;&#9;C301.4,257.9,298.4,260.9,294.8,260.9z"/>
	<polygon points="288.1,127.3 288.1,180.4 288.1,185.2 288.1,207.4 301.4,207.4 301.4,204.4 301.4,204.4 301.4,185.2 &#10;&#9;&#9;301.4,179.9 301.4,127.3 &#9;" id="el_hzV4Mdyl8an"/>
	<path d="M303.6,118.4h-17.8c-1.2,0-2.2,1-2.2,2.2c0,1.2,1,2.2,2.2,2.2h17.8c1.2,0,2.2-1,2.2-2.2&#10;&#9;&#9;C305.9,119.4,304.9,118.4,303.6,118.4z" id="el_JYNHSw8x_iX"/>
</g>
<g id="el_1mlpplnf5z-">
	<g id="el_iGwufGfv0QH">
		<path id="el_OV8VQlzv8PW" d="M124,287.9c-3.2,2.7-7.2,4.1-11.4,4.1H38.7c-4.2,0-8.2-1.4-11.4-4.1&#10;&#9;&#9;&#9;C10.6,274,0,253.1,0,229.7C0,201,16,176,39.6,163.2c8.6-4.7,13.8-13.8,13.8-23.5v-39.4c-2.6-0.9-4.4-3.4-4.4-6.3l0,0&#10;&#9;&#9;&#9;c0-3.7,3-6.7,6.7-6.7h40.1c3.7,0,6.7,3,6.7,6.7l0,0c0,2.9-1.9,5.4-4.4,6.3v39.6c0,9.7,5.2,18.7,13.8,23.4&#10;&#9;&#9;&#9;c23.2,12.6,39.1,37,39.6,65.1C151.8,252.3,141.1,273.8,124,287.9z"/>
		<path id="el_O7l3cEC4W8e" d="M107.6,171.6c20.5,11.2,34.6,32.9,34.8,57.8c0.2,20.3-8.6,38.5-22.6,50.9&#10;&#9;&#9;&#9;c-1.8,1.5-4,2.4-6.3,2.4H37.8c-2.3,0-4.6-0.8-6.3-2.4C17.6,268,8.9,250.1,8.9,230.2c0-25.2,14-47.2,34.7-58.6&#10;&#9;&#9;&#9;c11.5-6.3,18.8-18.2,18.8-31.3v-35.2c0-2.4,2-4.4,4.4-4.4h17.8c2.4,0,4.4,2,4.4,4.4v35.5C89,153.6,96.2,165.4,107.6,171.6z&#10;&#9;&#9;&#9; M93.5,91.7L93.5,91.7c0-2.4-2-4.4-4.4-4.4H62.3c-2.4,0-4.4,2-4.4,4.4l0,0c0,2.4,2,4.4,4.4,4.4H89C91.5,96.2,93.5,94.2,93.5,91.7z&#10;&#9;&#9;&#9;"/>
	</g>
</g>
<g id="el_TkkNJ6-UxKN">
	<rect x="73.2" y="39" width="117.4" height="5.2" id="el_gQn9zrTzxTG"/>
	<g id="el_zLaZ4PAUqw1">
		<rect x="202.5" y="21.1" width="151.4" height="53.6" id="el_1_HCt-VGHJj"/>
		<rect x="189.3" y="21.1" width="13.2" height="53.6" id="el_nWZ989gRvQz"/>
		<rect x="198.7" y="21.1" width="3.8" height="53.6" id="el_Q4GPy1Tdezv"/>
		<g id="el_h2bCrIXslu8">
			<line x1="277.5" y1="0" x2="277.5" y2="-1.9" id="el_HZ5axaWeE7R"/>
			<line x1="297.4" y1="-1.9" x2="297.4" y2="0" id="el_vVD7Dtdtwyb"/>
		</g>
		<rect x="180.5" y="74.7" width="190.3" height="9.6" id="el_kcbiYYxj65A"/>
		<rect x="166.1" y="74.7" width="22.7" height="9.6" id="el_utTfZYwPG-Q"/>
		<g id="el_auyiW-o3LJV">
			<rect x="188.3" y="84.3" width="10" height="18" id="el_Yi4RHGYzlT8"/>
			<rect x="198.3" y="84.3" width="13.6" height="18" id="el_DhrhDvj-bPC"/>
		</g>
		<g id="el_byrkXmpMY5S">
			<rect x="177" y="102.3" width="19.6" height="7.2" id="el_f4vtJdbPjba"/>
			<rect x="196.6" y="102.3" width="26.7" height="7.2" id="el_xpU1Bd-dAVX"/>
		</g>
	</g>
	<g id="el_bI1NwYc7jMP">
		<rect x="236.3" y="84.3" width="10" height="18" id="el_y4eLUYVU6IT"/>
		<rect x="246.3" y="84.3" width="13.6" height="18" id="el_ee5wy_in7Pa"/>
	</g>
	<g id="el_X70PFX5RGX8">
		<rect x="224.9" y="102.3" width="19.6" height="7.2" id="el_1In29KaTT6j"/>
		<rect x="244.5" y="102.3" width="26.7" height="7.2" id="el_RZbwkQlXhan"/>
	</g>
	<g id="el_WzX8hjLB-Fx">
		<rect x="283" y="84.3" width="10" height="18" id="el_plknhS-Gg1Q"/>
		<rect x="293" y="84.3" width="13.6" height="18" id="el_9dQnTvBnhca"/>
	</g>
	<g id="el_4YjYIKpPVg9">
		<rect x="273.1" y="102.3" width="19.6" height="7.2" id="el_TjWxFHIsaUY"/>
		<rect x="292.7" y="102.3" width="26.7" height="7.2" id="el_e-uAzQzNZW4"/>
	</g>
	<g id="el_nJQJE3SGTu1">
		<rect x="331.7" y="84.3" width="10" height="18" id="el_WW9QgrArkDD"/>
		<rect x="341.7" y="84.3" width="13.6" height="18" id="el_05UpbpRr7NI"/>
	</g>
	<g id="el_YKmPDjy_XWm">
		<rect x="322.2" y="102.3" width="19.6" height="7.2" id="el_i-sR0J5dngP"/>
		<rect x="341.8" y="102.3" width="26.7" height="7.2" id="el_wos26tCcRGg"/>
	</g>
</g>
<g id="el_ocYZb8VJNFN">
	<path id="el_2RRbQpLhOeZ" d="M170.9,256.4v-57.9H162v66.8l0,0C166.9,265.3,170.9,261.4,170.9,256.4z"/>
	<path id="el_nra6mZOieL8" d="M377.1,256.4v-57.9h-8.9v66.8l0,0C373.1,265.3,377.1,261.4,377.1,256.4z"/>
	<path d="M389.1,274.2h-5.5v-75.7h5.5c6.1,0,11.1-4,11.1-8.9s-5-8.9-11.1-8.9h-30.8c0,2.4-2,4.4-4.4,4.4h-22.3&#10;&#9;&#9;c-2.4,0-4.4-2-4.4-4.4h-16.8c0,2.4-2,4.4-4.4,4.4h-22.3c-2.4,0-4.4-2-4.4-4.4h-15.6c0,2.4-2,4.4-4.4,4.4h-22.3&#10;&#9;&#9;c-2.4,0-4.4-2-4.4-4.4h-15.6c0,2.4-2,4.4-4.4,4.4h-22.3c-2.4,0-4.4-2-4.4-4.4h-29.3c-6.1,0-11.1,4-11.1,8.9s5,8.9,11.1,8.9h5.6&#10;&#9;&#9;v75.7h-5.5c-6.1,0-11.1,4-11.1,8.9c0,4.9,5,8.9,11.1,8.9h5.5h22.2h177.3h22.2h5.5c6.1,0,11.1-4,11.1-8.9&#10;&#9;&#9;C400.2,278.2,395.2,274.2,389.1,274.2z M368.2,274.2H176.6v-75.7h191.6V274.2z" id="el_48-GYWywqpN"/>
	<path d="M389.1,180.7h-30.8c0,2.4-2,4.4-4.4,4.4h-22.3c-2.4,0-4.4-2-4.4-4.4h-16.8c0,2.4-2,4.4-4.4,4.4h-22.3&#10;&#9;&#9;c-2.4,0-4.4-2-4.4-4.4h-15.6c0,2.4-2,4.4-4.4,4.4h-22.3c-2.4,0-4.4-2-4.4-4.4h-15.6c0,2.4-2,4.4-4.4,4.4h-22.3&#10;&#9;&#9;c-2.4,0-4.4-2-4.4-4.4h-29.3c-6.1,0-11.1,4-11.1,8.9h254.8C400.2,184.7,395.2,180.7,389.1,180.7z" id="el_wescKst0m_5"/>
	<path id="el_vyucgM5BNZz" d="M156.5,274.2h232.7c6.1,0,11.1,4,11.1,8.9H145.4C145.4,278.2,150.4,274.2,156.5,274.2z"/>
	<path id="el_7Cm2lfk5EZR" d="M170.9,256.4v-57.9H162v66.8l0,0C166.9,265.3,170.9,261.4,170.9,256.4z"/>
	<path id="el_5Dmzd4Y0Lp1" d="M377.1,256.4v-57.9h-8.9v66.8l0,0C373.1,265.3,377.1,261.4,377.1,256.4z"/>
</g>
<g id="el_3I3rzA1UpVF">
	<path id="el_59XMlvsUXZX" d="M219.8,245.3h-33.4v-11.1h33.4V245.3z M336.7,234.1h-33.4v11.2h33.4V234.1z M453.5,234.1&#10;&#9;&#9;h-33.4v11.2h33.4V234.1z"/>
	<path id="el_SFzipNu0Vd8" d="M573.5,234.1h-33.4v11.2h33.4V234.1z"/>
</g>
<path d="M78.9,44.1c0.6-0.7,1-1.5,1-2.4c0-2.1-1.9-3.8-4.2-3.8s-4.2,1.7-4.2,3.8c0,0.9,0.4,1.8,1,2.4&#10;&#9;c-7.8,1.4-13.8,7.6-13.8,15.1v25.7c0,0.5,0.4,0.8,0.9,0.8s0.9-0.4,0.9-0.8V59.2c0-6.6,5.1-12.1,12-13.4c-0.5,0.7-1,1.7-1.5,2.9&#10;&#9;c-1,2.8-1.6,6.6-1.6,10.5v25.7c0,0.5,0.4,0.8,0.9,0.8c0.5,0,0.9-0.4,0.9-0.8V59.2c0-8.5,2.6-13.7,4.5-13.7s4.5,5.2,4.5,13.7v25.7&#10;&#9;c0,0.5,0.4,0.8,0.9,0.8s0.9-0.4,0.9-0.8V59.2c0-4-0.6-7.7-1.6-10.5c-0.4-1.2-0.9-2.1-1.5-2.9c6.8,1.3,12,6.8,12,13.4v25.7&#10;&#9;c0,0.5,0.4,0.8,0.9,0.8c0.5,0,0.9-0.4,0.9-0.8V59.2C92.7,51.7,86.7,45.5,78.9,44.1z M73.3,41.7c0-1.2,1.1-2.1,2.4-2.1&#10;&#9;c1.3,0,2.4,1,2.4,2.1s-1.1,2.1-2.4,2.1C74.4,43.9,73.3,42.9,73.3,41.7z" id="el_HcuqB8tVlvs"/>
<rect x="58.7" y="85" width="34" height="3.5" id="el_hpDu4J0auGv"/>
<path d="M93,85.7H58.4c-0.5,0-0.9-0.3-0.9-0.8s0.4-0.8,0.9-0.8H93c0.5,0,0.9,0.3,0.9,0.8S93.5,85.7,93,85.7z" id="el_TxAO47llB-N"/>
<path d="M347.2,32.6c0,2.2-1.6,6.7-3.8,6.7h-14.7c-2.2,0-3.8-4.5-3.8-6.7l0,0c0-2.2,1.6-3.8,3.8-3.8h15&#10;&#9;C345.6,28.7,347.2,30.3,347.2,32.6L347.2,32.6z" id="el__f7TsdVpz1H"/>
<path d="M347.2,32.6c0,2.2-1.6,3.8-3.8,3.8h-14.7c-2.2,0-3.8-1.6-3.8-3.8l0,0c0-2.2,1.6-3.8,3.8-3.8h15&#10;&#9;C345.6,28.7,347.2,30.3,347.2,32.6L347.2,32.6z" id="el_g74Nxp4YLTC"/>
<path d="M343.6,28.1h-15c-1.6,0-3.2,1.6-3.5,3.2c0.3,1.6,1.9,2.9,3.5,2.9h15c1.6,0,3.2-1.3,3.5-2.9&#10;&#9;C346.5,29.7,345.2,28.1,343.6,28.1z" id="el_HcasDZA1FIF"/>
<path d="M343.6,28.7h-15c-1.6,0-3.2,1.3-3.5,2.9c0.3,1.6,1.9,2.9,3.5,2.9h15c1.6,0,3.2-1.3,3.5-2.9&#10;&#9;C346.5,29.7,345.2,28.7,343.6,28.7z" id="el_XbjN1muVlye"/>
<path d="M328.6,34.2h15c1.6,0,3.2-1.3,3.5-2.9c-0.3-1.6-1.9-2.9-3.5-2.9" id="el_3MZJRvbaVjI"/>
<path d="M347.3,62.5c0,2.2-1.6,6.7-3.8,6.7h-14.7c-2.2,0-3.8-4.5-3.8-6.7l0,0c0-2.2,1.6-3.8,3.8-3.8h15&#10;&#9;C345.7,58.6,347.3,60.2,347.3,62.5L347.3,62.5z" id="el_WmYdxCH2RT6"/>
<path d="M347.3,62.5c0,2.2-1.6,3.8-3.8,3.8h-14.7c-2.2,0-3.8-1.6-3.8-3.8l0,0c0-2.2,1.6-3.8,3.8-3.8h15&#10;&#9;C345.7,58.6,347.3,60.2,347.3,62.5L347.3,62.5z" id="el_NEiXoiKU_Jn"/>
<path d="M343.8,58h-15c-1.6,0-3.2,1.6-3.5,3.2c0.3,1.6,1.9,2.9,3.5,2.9h15c1.6,0,3.2-1.3,3.5-2.9&#10;&#9;C346.7,59.6,345.4,58,343.8,58z" id="el_VBC97RqxBoJ"/>
<path d="M343.8,58.6h-15c-1.6,0-3.2,1.3-3.5,2.9c0.3,1.6,1.9,2.9,3.5,2.9h15c1.6,0,3.2-1.3,3.5-2.9&#10;&#9;C346.7,59.6,345.4,58.6,343.8,58.6z" id="el_9ovSjz4GC1D"/>
<path d="M328.8,64.1h15c1.6,0,3.2-1.3,3.5-2.9c-0.3-1.6-1.9-2.9-3.5-2.9" id="el_qiKlRf6NGIx"/>
<path d="M347.5,47.4c0,2.2-1.6,6.7-3.8,6.7h-14.7c-2.2,0-3.8-4.5-3.8-6.7l0,0c0-2.2,1.6-3.8,3.8-3.8h15&#10;&#9;C345.9,43.6,347.5,45.2,347.5,47.4L347.5,47.4z" id="el_E5sI8SZi8SU"/>
<path d="M347.5,47.4c0,2.2-1.6,3.8-3.8,3.8h-14.7c-2.2,0-3.8-1.6-3.8-3.8l0,0c0-2.2,1.6-3.8,3.8-3.8h15&#10;&#9;C345.9,43.6,347.5,45.2,347.5,47.4L347.5,47.4z" id="el_A2d5q6CANeT"/>
<path d="M344,43h-15c-1.6,0-3.2,1.6-3.5,3.2c0.3,1.6,1.9,2.9,3.5,2.9h15c1.6,0,3.2-1.3,3.5-2.9&#10;&#9;C346.8,44.9,345.6,43,344,43z" id="el_zdwURjYXzpx"/>
<path d="M344,43.6h-15c-1.6,0-3.2,1.3-3.5,2.9c0.3,1.6,1.9,2.9,3.5,2.9h15c1.6,0,3.2-1.3,3.5-2.9&#10;&#9;C346.8,44.9,345.6,43.6,344,43.6z" id="el_h0nErxhnqn2"/>
<path d="M328.9,49h15c1.6,0,3.2-1.3,3.5-2.9c-0.3-1.6-1.9-2.9-3.5-2.9" id="el_HAKgvs2sGzo"/>
<path d="M3.5,252.3c4.4,14.1,12.8,26.4,23.9,35.6c3.2,2.7,7.2,4.1,11.4,4.1h73.9c4.2,0,8.2-1.4,11.4-4.1&#10;&#9;c11.1-9.2,19.5-21.5,23.9-35.6H3.5z" id="el_2c5mGUtljvg"/>
<script>(function(){var a=document.querySelector('#el_lQ-OWYTeH'),b=a.querySelectorAll('style'),c=function(d){b.forEach(function(f){var g=f.textContent;g&amp;&amp;(f.textContent=g.replace(/transform-box:[^;\r\n]*/gi,'transform-box: '+d))})};c('initial'),window.requestAnimationFrame(function(){return c('fill-box')})})();</script></svg>