<svg version="1.1" id="el_2icLDtAxj" xmlns="http://www.w3.org/2000/svg" xmlns:xlink="http://www.w3.org/1999/xlink" x="0px" y="0px" viewBox="0 0 400 292" style="enable-background:new 0 0 400.2 292.1;" xml:space="preserve"><style>@-webkit-keyframes el_kRaACCFTWwv_Animation{0%{opacity: 0;}33.33%{opacity: 0;}50%{opacity: 1;}100%{opacity: 1;}}@keyframes el_kRaACCFTWwv_Animation{0%{opacity: 0;}33.33%{opacity: 0;}50%{opacity: 1;}100%{opacity: 1;}}@-webkit-keyframes el_b2kTcJVOiiO_Animation{0%{opacity: 0;}33.33%{opacity: 0;}50%{opacity: 1;}100%{opacity: 1;}}@keyframes el_b2kTcJVOiiO_Animation{0%{opacity: 0;}33.33%{opacity: 0;}50%{opacity: 1;}100%{opacity: 1;}}@-webkit-keyframes el_MHxKsYNTFq__Animation{33.33%{opacity: 1;}50%{opacity: 0;}0%{opacity: 1;}100%{opacity: 0;}}@keyframes el_MHxKsYNTFq__Animation{33.33%{opacity: 1;}50%{opacity: 0;}0%{opacity: 1;}100%{opacity: 0;}}@-webkit-keyframes el_2kJavg-jSqh_Animation{33.33%{opacity: 1;}50%{opacity: 0;}0%{opacity: 1;}100%{opacity: 0;}}@keyframes el_2kJavg-jSqh_Animation{33.33%{opacity: 1;}50%{opacity: 0;}0%{opacity: 1;}100%{opacity: 0;}}@-webkit-keyframes el__erbawlFmOr_Huw3sz2p9_Animation{0%{-webkit-transform: translate(295.4018249511719px, 191.80001068115234px) translate(-295.4018249511719px, -191.80001068115234px) translate(0px, 0px);transform: translate(295.4018249511719px, 191.80001068115234px) translate(-295.4018249511719px, -191.80001068115234px) translate(0px, 0px);}16.67%{-webkit-transform: translate(295.4018249511719px, 191.80001068115234px) translate(-295.4018249511719px, -191.80001068115234px) translate(0px, -9px);transform: translate(295.4018249511719px, 191.80001068115234px) translate(-295.4018249511719px, -191.80001068115234px) translate(0px, -9px);}50%{-webkit-transform: translate(295.4018249511719px, 191.80001068115234px) translate(-295.4018249511719px, -191.80001068115234px) translate(0px, -9px);transform: translate(295.4018249511719px, 191.80001068115234px) translate(-295.4018249511719px, -191.80001068115234px) translate(0px, -9px);}66.67%{-webkit-transform: translate(295.4018249511719px, 191.80001068115234px) translate(-295.4018249511719px, -191.80001068115234px) translate(0px, 0px);transform: translate(295.4018249511719px, 191.80001068115234px) translate(-295.4018249511719px, -191.80001068115234px) translate(0px, 0px);}100%{-webkit-transform: translate(295.4018249511719px, 191.80001068115234px) translate(-295.4018249511719px, -191.80001068115234px) translate(0px, 0px);transform: translate(295.4018249511719px, 191.80001068115234px) translate(-295.4018249511719px, -191.80001068115234px) translate(0px, 0px);}}@keyframes el__erbawlFmOr_Huw3sz2p9_Animation{0%{-webkit-transform: translate(295.4018249511719px, 191.80001068115234px) translate(-295.4018249511719px, -191.80001068115234px) translate(0px, 0px);transform: translate(295.4018249511719px, 191.80001068115234px) translate(-295.4018249511719px, -191.80001068115234px) translate(0px, 0px);}16.67%{-webkit-transform: translate(295.4018249511719px, 191.80001068115234px) translate(-295.4018249511719px, -191.80001068115234px) translate(0px, -9px);transform: translate(295.4018249511719px, 191.80001068115234px) translate(-295.4018249511719px, -191.80001068115234px) translate(0px, -9px);}50%{-webkit-transform: translate(295.4018249511719px, 191.80001068115234px) translate(-295.4018249511719px, -191.80001068115234px) translate(0px, -9px);transform: translate(295.4018249511719px, 191.80001068115234px) translate(-295.4018249511719px, -191.80001068115234px) translate(0px, -9px);}66.67%{-webkit-transform: translate(295.4018249511719px, 191.80001068115234px) translate(-295.4018249511719px, -191.80001068115234px) translate(0px, 0px);transform: translate(295.4018249511719px, 191.80001068115234px) translate(-295.4018249511719px, -191.80001068115234px) translate(0px, 0px);}100%{-webkit-transform: translate(295.4018249511719px, 191.80001068115234px) translate(-295.4018249511719px, -191.80001068115234px) translate(0px, 0px);transform: translate(295.4018249511719px, 191.80001068115234px) translate(-295.4018249511719px, -191.80001068115234px) translate(0px, 0px);}}@-webkit-keyframes el_3MZxBhDiIT9_Animation{33.33%{opacity: 1;}50%{opacity: 0;}0%{opacity: 1;}100%{opacity: 0;}}@keyframes el_3MZxBhDiIT9_Animation{33.33%{opacity: 1;}50%{opacity: 0;}0%{opacity: 1;}100%{opacity: 0;}}@-webkit-keyframes el_zYfOeHhkNw8_Animation{33.33%{opacity: 1;}50%{opacity: 0;}0%{opacity: 1;}100%{opacity: 0;}}@keyframes el_zYfOeHhkNw8_Animation{33.33%{opacity: 1;}50%{opacity: 0;}0%{opacity: 1;}100%{opacity: 0;}}@-webkit-keyframes el_kg_WwH-KDP0_kcUpd_YuK_Animation{0%{-webkit-transform: translate(248.00690460205078px, 191.80001068115234px) translate(-248.00690460205078px, -191.80001068115234px) translate(0px, 0px);transform: translate(248.00690460205078px, 191.80001068115234px) translate(-248.00690460205078px, -191.80001068115234px) translate(0px, 0px);}16.67%{-webkit-transform: translate(248.00690460205078px, 191.80001068115234px) translate(-248.00690460205078px, -191.80001068115234px) translate(0px, -9px);transform: translate(248.00690460205078px, 191.80001068115234px) translate(-248.00690460205078px, -191.80001068115234px) translate(0px, -9px);}50%{-webkit-transform: translate(248.00690460205078px, 191.80001068115234px) translate(-248.00690460205078px, -191.80001068115234px) translate(0px, -9px);transform: translate(248.00690460205078px, 191.80001068115234px) translate(-248.00690460205078px, -191.80001068115234px) translate(0px, -9px);}66.67%{-webkit-transform: translate(248.00690460205078px, 191.80001068115234px) translate(-248.00690460205078px, -191.80001068115234px) translate(0px, 0px);transform: translate(248.00690460205078px, 191.80001068115234px) translate(-248.00690460205078px, -191.80001068115234px) translate(0px, 0px);}100%{-webkit-transform: translate(248.00690460205078px, 191.80001068115234px) translate(-248.00690460205078px, -191.80001068115234px) translate(0px, 0px);transform: translate(248.00690460205078px, 191.80001068115234px) translate(-248.00690460205078px, -191.80001068115234px) translate(0px, 0px);}}@keyframes el_kg_WwH-KDP0_kcUpd_YuK_Animation{0%{-webkit-transform: translate(248.00690460205078px, 191.80001068115234px) translate(-248.00690460205078px, -191.80001068115234px) translate(0px, 0px);transform: translate(248.00690460205078px, 191.80001068115234px) translate(-248.00690460205078px, -191.80001068115234px) translate(0px, 0px);}16.67%{-webkit-transform: translate(248.00690460205078px, 191.80001068115234px) translate(-248.00690460205078px, -191.80001068115234px) translate(0px, -9px);transform: translate(248.00690460205078px, 191.80001068115234px) translate(-248.00690460205078px, -191.80001068115234px) translate(0px, -9px);}50%{-webkit-transform: translate(248.00690460205078px, 191.80001068115234px) translate(-248.00690460205078px, -191.80001068115234px) translate(0px, -9px);transform: translate(248.00690460205078px, 191.80001068115234px) translate(-248.00690460205078px, -191.80001068115234px) translate(0px, -9px);}66.67%{-webkit-transform: translate(248.00690460205078px, 191.80001068115234px) translate(-248.00690460205078px, -191.80001068115234px) translate(0px, 0px);transform: translate(248.00690460205078px, 191.80001068115234px) translate(-248.00690460205078px, -191.80001068115234px) translate(0px, 0px);}100%{-webkit-transform: translate(248.00690460205078px, 191.80001068115234px) translate(-248.00690460205078px, -191.80001068115234px) translate(0px, 0px);transform: translate(248.00690460205078px, 191.80001068115234px) translate(-248.00690460205078px, -191.80001068115234px) translate(0px, 0px);}}@-webkit-keyframes el_gaBQx-60_Q9_Animation{33.33%{opacity: 1;}50%{opacity: 0;}0%{opacity: 1;}100%{opacity: 0;}}@keyframes el_gaBQx-60_Q9_Animation{33.33%{opacity: 1;}50%{opacity: 0;}0%{opacity: 1;}100%{opacity: 0;}}@-webkit-keyframes el_QacdWlp6bpU_Animation{33.33%{opacity: 1;}50%{opacity: 0;}0%{opacity: 1;}100%{opacity: 0;}}@keyframes el_QacdWlp6bpU_Animation{33.33%{opacity: 1;}50%{opacity: 0;}0%{opacity: 1;}100%{opacity: 0;}}@-webkit-keyframes el_MMANUjz-8an_AXV2cSGsJ_Animation{0%{-webkit-transform: translate(200.101806640625px, 191.80001068115234px) translate(-200.101806640625px, -191.80001068115234px) translate(0px, 0px);transform: translate(200.101806640625px, 191.80001068115234px) translate(-200.101806640625px, -191.80001068115234px) translate(0px, 0px);}16.67%{-webkit-transform: translate(200.101806640625px, 191.80001068115234px) translate(-200.101806640625px, -191.80001068115234px) translate(0px, -9px);transform: translate(200.101806640625px, 191.80001068115234px) translate(-200.101806640625px, -191.80001068115234px) translate(0px, -9px);}50%{-webkit-transform: translate(200.101806640625px, 191.80001068115234px) translate(-200.101806640625px, -191.80001068115234px) translate(0px, -9px);transform: translate(200.101806640625px, 191.80001068115234px) translate(-200.101806640625px, -191.80001068115234px) translate(0px, -9px);}66.67%{-webkit-transform: translate(200.101806640625px, 191.80001068115234px) translate(-200.101806640625px, -191.80001068115234px) translate(0px, 0px);transform: translate(200.101806640625px, 191.80001068115234px) translate(-200.101806640625px, -191.80001068115234px) translate(0px, 0px);}100%{-webkit-transform: translate(200.101806640625px, 191.80001068115234px) translate(-200.101806640625px, -191.80001068115234px) translate(0px, 0px);transform: translate(200.101806640625px, 191.80001068115234px) translate(-200.101806640625px, -191.80001068115234px) translate(0px, 0px);}}@keyframes el_MMANUjz-8an_AXV2cSGsJ_Animation{0%{-webkit-transform: translate(200.101806640625px, 191.80001068115234px) translate(-200.101806640625px, -191.80001068115234px) translate(0px, 0px);transform: translate(200.101806640625px, 191.80001068115234px) translate(-200.101806640625px, -191.80001068115234px) translate(0px, 0px);}16.67%{-webkit-transform: translate(200.101806640625px, 191.80001068115234px) translate(-200.101806640625px, -191.80001068115234px) translate(0px, -9px);transform: translate(200.101806640625px, 191.80001068115234px) translate(-200.101806640625px, -191.80001068115234px) translate(0px, -9px);}50%{-webkit-transform: translate(200.101806640625px, 191.80001068115234px) translate(-200.101806640625px, -191.80001068115234px) translate(0px, -9px);transform: translate(200.101806640625px, 191.80001068115234px) translate(-200.101806640625px, -191.80001068115234px) translate(0px, -9px);}66.67%{-webkit-transform: translate(200.101806640625px, 191.80001068115234px) translate(-200.101806640625px, -191.80001068115234px) translate(0px, 0px);transform: translate(200.101806640625px, 191.80001068115234px) translate(-200.101806640625px, -191.80001068115234px) translate(0px, 0px);}100%{-webkit-transform: translate(200.101806640625px, 191.80001068115234px) translate(-200.101806640625px, -191.80001068115234px) translate(0px, 0px);transform: translate(200.101806640625px, 191.80001068115234px) translate(-200.101806640625px, -191.80001068115234px) translate(0px, 0px);}}@-webkit-keyframes el_zZ4GabGRbRk_Animation{33.33%{opacity: 1;}50%{opacity: 0;}0%{opacity: 1;}100%{opacity: 0;}}@keyframes el_zZ4GabGRbRk_Animation{33.33%{opacity: 1;}50%{opacity: 0;}0%{opacity: 1;}100%{opacity: 0;}}@-webkit-keyframes el_JZUsaYdzqvV_Animation{33.33%{opacity: 1;}50%{opacity: 0;}0%{opacity: 1;}100%{opacity: 0;}}@keyframes el_JZUsaYdzqvV_Animation{33.33%{opacity: 1;}50%{opacity: 0;}0%{opacity: 1;}100%{opacity: 0;}}@-webkit-keyframes el_yUwXdIgylHU_0hPEMJAK0_Animation{0%{-webkit-transform: translate(342.80181884765625px, 191.80001068115234px) translate(-342.80181884765625px, -191.80001068115234px) translate(0px, 0px);transform: translate(342.80181884765625px, 191.80001068115234px) translate(-342.80181884765625px, -191.80001068115234px) translate(0px, 0px);}16.67%{-webkit-transform: translate(342.80181884765625px, 191.80001068115234px) translate(-342.80181884765625px, -191.80001068115234px) translate(0px, -9px);transform: translate(342.80181884765625px, 191.80001068115234px) translate(-342.80181884765625px, -191.80001068115234px) translate(0px, -9px);}50%{-webkit-transform: translate(342.80181884765625px, 191.80001068115234px) translate(-342.80181884765625px, -191.80001068115234px) translate(0px, -9px);transform: translate(342.80181884765625px, 191.80001068115234px) translate(-342.80181884765625px, -191.80001068115234px) translate(0px, -9px);}66.67%{-webkit-transform: translate(342.80181884765625px, 191.80001068115234px) translate(-342.80181884765625px, -191.80001068115234px) translate(0px, 0px);transform: translate(342.80181884765625px, 191.80001068115234px) translate(-342.80181884765625px, -191.80001068115234px) translate(0px, 0px);}100%{-webkit-transform: translate(342.80181884765625px, 191.80001068115234px) translate(-342.80181884765625px, -191.80001068115234px) translate(0px, 0px);transform: translate(342.80181884765625px, 191.80001068115234px) translate(-342.80181884765625px, -191.80001068115234px) translate(0px, 0px);}}@keyframes el_yUwXdIgylHU_0hPEMJAK0_Animation{0%{-webkit-transform: translate(342.80181884765625px, 191.80001068115234px) translate(-342.80181884765625px, -191.80001068115234px) translate(0px, 0px);transform: translate(342.80181884765625px, 191.80001068115234px) translate(-342.80181884765625px, -191.80001068115234px) translate(0px, 0px);}16.67%{-webkit-transform: translate(342.80181884765625px, 191.80001068115234px) translate(-342.80181884765625px, -191.80001068115234px) translate(0px, -9px);transform: translate(342.80181884765625px, 191.80001068115234px) translate(-342.80181884765625px, -191.80001068115234px) translate(0px, -9px);}50%{-webkit-transform: translate(342.80181884765625px, 191.80001068115234px) translate(-342.80181884765625px, -191.80001068115234px) translate(0px, -9px);transform: translate(342.80181884765625px, 191.80001068115234px) translate(-342.80181884765625px, -191.80001068115234px) translate(0px, -9px);}66.67%{-webkit-transform: translate(342.80181884765625px, 191.80001068115234px) translate(-342.80181884765625px, -191.80001068115234px) translate(0px, 0px);transform: translate(342.80181884765625px, 191.80001068115234px) translate(-342.80181884765625px, -191.80001068115234px) translate(0px, 0px);}100%{-webkit-transform: translate(342.80181884765625px, 191.80001068115234px) translate(-342.80181884765625px, -191.80001068115234px) translate(0px, 0px);transform: translate(342.80181884765625px, 191.80001068115234px) translate(-342.80181884765625px, -191.80001068115234px) translate(0px, 0px);}}@-webkit-keyframes el_xcKRhTbDft_0ExV2KgPF_Animation{16.67%{-webkit-transform: translate(353.95001220703125px, 21.150001525878906px) rotate(0deg) translate(-353.95001220703125px, -21.150001525878906px);transform: translate(353.95001220703125px, 21.150001525878906px) rotate(0deg) translate(-353.95001220703125px, -21.150001525878906px);}26.67%{-webkit-transform: translate(353.95001220703125px, 21.150001525878906px) rotate(180deg) translate(-353.95001220703125px, -21.150001525878906px);transform: translate(353.95001220703125px, 21.150001525878906px) rotate(180deg) translate(-353.95001220703125px, -21.150001525878906px);}33.33%{-webkit-transform: translate(353.95001220703125px, 21.150001525878906px) rotate(0deg) translate(-353.95001220703125px, -21.150001525878906px);transform: translate(353.95001220703125px, 21.150001525878906px) rotate(0deg) translate(-353.95001220703125px, -21.150001525878906px);}0%{-webkit-transform: translate(353.95001220703125px, 21.150001525878906px) rotate(0deg) translate(-353.95001220703125px, -21.150001525878906px);transform: translate(353.95001220703125px, 21.150001525878906px) rotate(0deg) translate(-353.95001220703125px, -21.150001525878906px);}100%{-webkit-transform: translate(353.95001220703125px, 21.150001525878906px) rotate(0deg) translate(-353.95001220703125px, -21.150001525878906px);transform: translate(353.95001220703125px, 21.150001525878906px) rotate(0deg) translate(-353.95001220703125px, -21.150001525878906px);}}@keyframes el_xcKRhTbDft_0ExV2KgPF_Animation{16.67%{-webkit-transform: translate(353.95001220703125px, 21.150001525878906px) rotate(0deg) translate(-353.95001220703125px, -21.150001525878906px);transform: translate(353.95001220703125px, 21.150001525878906px) rotate(0deg) translate(-353.95001220703125px, -21.150001525878906px);}26.67%{-webkit-transform: translate(353.95001220703125px, 21.150001525878906px) rotate(180deg) translate(-353.95001220703125px, -21.150001525878906px);transform: translate(353.95001220703125px, 21.150001525878906px) rotate(180deg) translate(-353.95001220703125px, -21.150001525878906px);}33.33%{-webkit-transform: translate(353.95001220703125px, 21.150001525878906px) rotate(0deg) translate(-353.95001220703125px, -21.150001525878906px);transform: translate(353.95001220703125px, 21.150001525878906px) rotate(0deg) translate(-353.95001220703125px, -21.150001525878906px);}0%{-webkit-transform: translate(353.95001220703125px, 21.150001525878906px) rotate(0deg) translate(-353.95001220703125px, -21.150001525878906px);transform: translate(353.95001220703125px, 21.150001525878906px) rotate(0deg) translate(-353.95001220703125px, -21.150001525878906px);}100%{-webkit-transform: translate(353.95001220703125px, 21.150001525878906px) rotate(0deg) translate(-353.95001220703125px, -21.150001525878906px);transform: translate(353.95001220703125px, 21.150001525878906px) rotate(0deg) translate(-353.95001220703125px, -21.150001525878906px);}}#el_2icLDtAxj *{-webkit-animation-duration: 3s;animation-duration: 3s;-webkit-animation-timing-function: cubic-bezier(0, 0, 1, 1);animation-timing-function: cubic-bezier(0, 0, 1, 1);}#el_xcKRhTbDft{fill: #E2AF76;}#el_UDLiPoJg_b{display: none;}#el_VHY2BM0h5Q{display: inline;fill: #BDCBC7;}#el_iYfNLyjBUT{display: inline;}#el_r3aJcVmz89{fill: #BDCBC7;}#el_12s4pQYPBM{fill: #E0E5DA;}#el_bKKxPbQKvR{fill: #96BA74;}#el_gVU7qnX-MA{fill: #31542D;}#el_1ewJjtM18e{fill: #88A1AF;}#el_ezd0jjuSqu{fill: #495559;}#el_Ila5i47CSJ{fill: #876866;}#el_HWcRGH8Uae{fill: #4F3733;}#el_XF2qFYzFdm{fill: #361C0A;}#el_m8SrY8GCMc{fill: #7C4627;}#el_05mLkqLTom{fill: #513A2B;}#el_JJvxF9lRyPF{fill: #E0E5DA;}#el_McDZqwj35-X{display: inline;fill: #513A2B;}#el_RpBdpMuSrud{display: inline;fill: #7C4627;}#el_itIDkltDNon{display: inline;fill: #7C4627;}#el_ov2zDuEf5r3{display: inline;fill: #7C4627;}#el_7HaRQFSNXrc{display: inline;fill: #361C0A;}#el_FVVJjZO07iY{display: inline;fill: #7C4627;}#el_KF4e2t4JWYP{display: inline;}#el_Q7Xjb0GOS3z{fill: #513A2B;}#el_1u4zXOgJRmG{fill: #513A2B;}#el_Dg4ZwwMF_dL{fill: #BDCBC7;}#el_PLWJEWWsM15{fill: #E0E5DA;}#el_JZUsaYdzqvV{fill: #D46456;-webkit-animation-name: el_JZUsaYdzqvV_Animation;animation-name: el_JZUsaYdzqvV_Animation;opacity: 0;}#el_zZ4GabGRbRk{fill: #6F2917;-webkit-animation-name: el_zZ4GabGRbRk_Animation;animation-name: el_zZ4GabGRbRk_Animation;opacity: 0;}#el_38pvoJom7jR{fill: #E0E5DA;}#el_DKMg_iF1jhu{fill: #E0E5DA;}#el_am4bqIqu0RC{fill: #BDCBC7;}#el_uSlVd-5Mqlr{fill: #E0E5DA;}#el_QacdWlp6bpU{fill: #876866;-webkit-animation-name: el_QacdWlp6bpU_Animation;animation-name: el_QacdWlp6bpU_Animation;opacity: 0;}#el_gaBQx-60_Q9{fill: #4F3733;-webkit-animation-name: el_gaBQx-60_Q9_Animation;animation-name: el_gaBQx-60_Q9_Animation;opacity: 0;}#el_vyDCG47yw_I{fill: #E0E5DA;}#el_PYK1Rn62pvc{fill: #E0E5DA;}#el_0sWhs8aneXM{fill: #BDCBC7;}#el_FWHF_pnTD-U{fill: #E0E5DA;}#el_zYfOeHhkNw8{fill: #88A1AF;-webkit-animation-name: el_zYfOeHhkNw8_Animation;animation-name: el_zYfOeHhkNw8_Animation;opacity: 0;}#el_3MZxBhDiIT9{fill: #495559;-webkit-animation-name: el_3MZxBhDiIT9_Animation;animation-name: el_3MZxBhDiIT9_Animation;opacity: 0;}#el_-RkgKK_Vvfb{fill: #E0E5DA;}#el_lCvd7lAzw1d{fill: #E0E5DA;}#el__8i4iPiQfHZ{fill: #BDCBC7;}#el_gJ5GQepYOhV{fill: #E0E5DA;}#el_2kJavg-jSqh{fill: #96BA74;-webkit-animation-name: el_2kJavg-jSqh_Animation;animation-name: el_2kJavg-jSqh_Animation;opacity: 0;}#el_MHxKsYNTFq_{fill: #31542D;-webkit-animation-name: el_MHxKsYNTFq__Animation;animation-name: el_MHxKsYNTFq__Animation;opacity: 0;}#el_q32NavAENuL{fill: #E0E5DA;}#el_evV1FW0FgVq{fill: #E0E5DA;}#el_wG6drmBiRuz{fill: #BFC4C2;}#el_HKbSOzLboIg{fill: #E0E5DA;}#el_4YgH4JeJ69z{fill: #CCCCCC;}#el_kvDRIYQK9QK{fill: #CCCCCC;}#el_Dg-cvtU8tuJ{fill: #808080;}#el_GHIZKyO_E-b{fill: #808080;}#el_oiZiVhPo3ud{fill: #999999;}#el_vlkDCan70Gi{fill: #999999;}#el_BDt80MPSR7f{fill: #999999;}#el_QpFrMoDhhv5{fill: #808080;}#el_wzVdfjIpIY7{fill: #B3B3B3;}#el_bdw57hyHdRj{fill: #CCCCCC;}#el_Lyx2nfgNkML{fill: #B3B3B3;}#el_Ehm7ggoEpeA{fill: #CCCCCC;}#el_QAJ6qPwId7x{fill: #B3B3B3;}#el_bUmtCaUiCcM{fill: #CCCCCC;}#el_ZlujFhwOKaV{fill: #B3B3B3;}#el_wXpRxe2WfrI{fill: #CCCCCC;}#el_-QJq54_Qh5I{fill: #B3B3B3;}#el__NVr8sD6-bW{fill: #CCCCCC;}#el_fzcdPTaHJAL{fill: #B3B3B3;}#el_OuBJOgD_8XV{fill: #CCCCCC;}#el_iADRUZy0bFd{fill: #B3B3B3;}#el_pUCu1CSs0xL{fill: #CCCCCC;}#el_TBG4vRfAhMr{fill: #B3B3B3;}#el_MgvePzn6uhj{fill: #CCCCCC;}#el_n1O0Jqu9hsi{fill: #7C4627;}#el_Q8FAOMMumjt{fill: #7C4627;}#el_H0EVIasuegJ{fill: #361C0A;}#el_RChLneLZm5u{fill: #7C4627;}#el_QKcfWjDbsY6{fill: #7C4627;}#el_UeRIDW36LRa{fill: #7C4627;}#el_UdKFuMdk1_v{fill: #7C4627;}#el__xsK1QsNsSf{display: none;}#el_Z0lhih_izmc{display: inline;fill: #9BA09A;}#el_O_Wdk49wZiC{display: inline;fill: #9BA09A;}#el_8cPtTEzn5DA{fill: #CCCCCC;}#el_d2lANU8L0Rk{fill: #FF6A2E;}#el_xH8esw9hTkz{fill: #F24802;}#el_B_h0QaL2azR{fill: #84A6AD;}#el_3Xla4SCWkAc{fill: #306687;}#el_8qiW7l868pG{fill: #27A7C4;}#el_xc0XoBcbGnZ{fill: #2D8CA5;}#el_NCcZPq_zT08{fill: #227B93;}#el_PBOAFUCz5mS{fill: #84A6AD;}#el_IAxOP8-xHGT{fill: #990000;}#el_Mtftb7ieUzS{fill: #F73131;}#el_n5hrU-jw0Al{fill: #D10D0D;}#el_nWqEm_C-Q3u{fill: #B70404;}#el_Ik2SP57JQus{fill: #84A6AD;}#el_9wu0xx96fRy{fill: #599316;}#el_79Dvyo4RQPh{fill: #8FDD3C;}#el_-jvl7CKZ23x{fill: #79C430;}#el_awCkzvIRRIg{fill: #67AD1E;}#el_isyoSAPAnSM{fill: #4F3733;visibility: hidden;}#el_cNQ84QCH2AA{fill: #4F3733;}#el_EaTOiAtElmy{fill: #4F3733;}#el_5iiBfJUndWm{fill: #4F3733;}#el_kRaACCFTWwv{-webkit-animation-name: el_kRaACCFTWwv_Animation;animation-name: el_kRaACCFTWwv_Animation;opacity: 1;}#el_EJY4DrieoWd{visibility: hidden;}#el_xcKRhTbDft_0ExV2KgPF{-webkit-animation-name: el_xcKRhTbDft_0ExV2KgPF_Animation;animation-name: el_xcKRhTbDft_0ExV2KgPF_Animation;-webkit-transform: translate(353.95001220703125px, 21.150001525878906px) rotate(0deg) translate(-353.95001220703125px, -21.150001525878906px);transform: translate(353.95001220703125px, 21.150001525878906px) rotate(0deg) translate(-353.95001220703125px, -21.150001525878906px);}#el_yUwXdIgylHU_0hPEMJAK0{-webkit-animation-name: el_yUwXdIgylHU_0hPEMJAK0_Animation;animation-name: el_yUwXdIgylHU_0hPEMJAK0_Animation;-webkit-transform: translate(342.80181884765625px, 191.80001068115234px) translate(-342.80181884765625px, -191.80001068115234px) translate(0px, 0px);transform: translate(342.80181884765625px, 191.80001068115234px) translate(-342.80181884765625px, -191.80001068115234px) translate(0px, 0px);}#el_MMANUjz-8an_AXV2cSGsJ{-webkit-animation-name: el_MMANUjz-8an_AXV2cSGsJ_Animation;animation-name: el_MMANUjz-8an_AXV2cSGsJ_Animation;-webkit-transform: translate(200.101806640625px, 191.80001068115234px) translate(-200.101806640625px, -191.80001068115234px) translate(0px, 0px);transform: translate(200.101806640625px, 191.80001068115234px) translate(-200.101806640625px, -191.80001068115234px) translate(0px, 0px);}#el_kg_WwH-KDP0_kcUpd_YuK{-webkit-animation-name: el_kg_WwH-KDP0_kcUpd_YuK_Animation;animation-name: el_kg_WwH-KDP0_kcUpd_YuK_Animation;-webkit-transform: translate(248.00690460205078px, 191.80001068115234px) translate(-248.00690460205078px, -191.80001068115234px) translate(0px, 0px);transform: translate(248.00690460205078px, 191.80001068115234px) translate(-248.00690460205078px, -191.80001068115234px) translate(0px, 0px);}#el__erbawlFmOr_Huw3sz2p9{-webkit-animation-name: el__erbawlFmOr_Huw3sz2p9_Animation;animation-name: el__erbawlFmOr_Huw3sz2p9_Animation;-webkit-transform: translate(295.4018249511719px, 191.80001068115234px) translate(-295.4018249511719px, -191.80001068115234px) translate(0px, 0px);transform: translate(295.4018249511719px, 191.80001068115234px) translate(-295.4018249511719px, -191.80001068115234px) translate(0px, 0px);}#el_b2kTcJVOiiO{-webkit-animation-name: el_b2kTcJVOiiO_Animation;animation-name: el_b2kTcJVOiiO_Animation;opacity: 1;visibility: hidden;}</style>

<g id="el_xcKRhTbDft_0ExV2KgPF" data-animator-group="true" data-animator-type="1"><path d="M367,8.1c-7.2-7.2-18.9-7.2-26.1,0s-7.2,18.9,0,26.1s18.9,7.2,26.1,0C374.2,27,374.2,15.3,367,8.1z M363.6,28.7&#10;&#9;L358,23c0.5-1.2,0.5-2.5,0-3.7l5.7-5.7C367.1,18.1,367.1,24.3,363.6,28.7z M361.5,11.5l-5.7,5.7c-1.2-0.5-2.5-0.5-3.7,0l-5.7-5.7&#10;&#9;C350.9,8.1,357.1,8.1,361.5,11.5z M344.4,13.7l5.7,5.7c-0.5,1.2-0.5,2.5,0,3.7l-5.7,5.7C340.9,24.3,340.9,18.1,344.4,13.7z&#10;&#9; M346.5,30.8l5.7-5.7c1.2,0.5,2.5,0.5,3.7,0l5.7,5.7C357.1,34.3,350.9,34.3,346.5,30.8z" id="el_xcKRhTbDft"/></g>
<g id="el_UDLiPoJg_b">
	<path id="el_VHY2BM0h5Q" d="M584.6,78.3h-55.7c-6.1,0-11.1,5.5-11.1,12.2c0,6.8,5,12.2,11.1,12.2V415&#10;&#9;&#9;c0,16.9,12.5,30.6,27.8,30.6s27.8-13.7,27.8-30.6V102.8c6.1,0,11.1-5.5,11.1-12.2C595.7,83.8,590.7,78.3,584.6,78.3z"/>
	<g id="el_iYfNLyjBUT">
		<path id="el_r3aJcVmz89" d="M475.8,90.6c0,6.8-5,12.2-11.1,12.2v312.2c0,16.9-12.5,30.6-27.8,30.6s-27.8-13.7-27.8-30.6&#10;&#9;&#9;&#9;V102.8c-6.1,0-11.1-5.5-11.1-12.2c0-6.8,5-12.2,11.1-12.2h55.7C470.8,78.3,475.8,83.8,475.8,90.6z M347.8,78.3h-55.7&#10;&#9;&#9;&#9;c-6.1,0-11.1,5.5-11.1,12.2c0,6.8,5,12.2,11.1,12.2V415c0,16.9,12.5,30.6,27.8,30.6s27.8-13.7,27.8-30.6V102.8&#10;&#9;&#9;&#9;c6.1,0,11.1-5.5,11.1-12.2C358.9,83.8,353.9,78.3,347.8,78.3z M230.9,78.3h-55.7c-6.1,0-11.1,5.5-11.1,12.2&#10;&#9;&#9;&#9;c0,6.8,5,12.2,11.1,12.2V415c0,16.9,12.5,30.6,27.8,30.6c15.4,0,27.8-13.7,27.8-30.6V102.8c6.1,0,11.1-5.5,11.1-12.2&#10;&#9;&#9;&#9;C242.1,83.8,237.1,78.3,230.9,78.3z"/>
		<path id="el_12s4pQYPBM" d="M436.8,434.6L436.8,434.6c-9.2,0-16.7-7.5-16.7-16.7V256.5h33.4v161.4&#10;&#9;&#9;&#9;C453.5,427.1,446.1,434.6,436.8,434.6z M336.7,417.9V256.5h-33.4v161.4c0,9.2,7.5,16.7,16.7,16.7l0,0&#10;&#9;&#9;&#9;C329.2,434.6,336.7,427.1,336.7,417.9z M219.8,417.9V256.5h-33.4v161.4c0,9.2,7.5,16.7,16.7,16.7l0,0&#10;&#9;&#9;&#9;C212.3,434.6,219.8,427.1,219.8,417.9z"/>
		<path id="el_bKKxPbQKvR" d="M436.8,434.6L436.8,434.6c-9.2,0-16.7-7.5-16.7-16.7V300.9h33.4v116.9&#10;&#9;&#9;&#9;C453.5,427.1,446.1,434.6,436.8,434.6z"/>
		<path id="el_gVU7qnX-MA" d="M436.8,434.6L436.8,434.6c-9.2,0-16.7-7.5-16.7-16.7v-94.6h33.4v94.6&#10;&#9;&#9;&#9;C453.5,427.1,446.1,434.6,436.8,434.6z"/>
		<path id="el_1ewJjtM18e" d="M320,434.6L320,434.6c-9.2,0-16.7-7.5-16.7-16.7V300.9h33.4v116.9&#10;&#9;&#9;&#9;C336.7,427.1,329.2,434.6,320,434.6z"/>
		<path id="el_ezd0jjuSqu" d="M320,434.6L320,434.6c-9.2,0-16.7-7.5-16.7-16.7v-94.6h33.4v94.6&#10;&#9;&#9;&#9;C336.7,427.1,329.2,434.6,320,434.6z"/>
		<path id="el_Ila5i47CSJ" d="M203.1,434.6L203.1,434.6c-9.2,0-16.7-7.5-16.7-16.7V300.9h33.4v116.9&#10;&#9;&#9;&#9;C219.8,427.1,212.3,434.6,203.1,434.6z"/>
		<path id="el_HWcRGH8Uae" d="M203.1,434.6L203.1,434.6c-9.2,0-16.7-7.5-16.7-16.7v-94.6h33.4v94.6&#10;&#9;&#9;&#9;C219.8,427.1,212.3,434.6,203.1,434.6z"/>
		<path id="el_XF2qFYzFdm" d="M672.6,467.9h-13.8V278.8h13.8c15.3,0,27.7-10,27.7-22.3c0-12.3-12.4-22.3-27.7-22.3H91&#10;&#9;&#9;&#9;c-15.3,0-27.7,10-27.7,22.3c0,12.3,12.4,22.3,27.7,22.3h13.8V468H91c-15.3,0-27.7,10-27.7,22.3s12.4,22.3,27.7,22.3h13.8h55.4&#10;&#9;&#9;&#9;h443.2h55.4h13.8c15.3,0,27.7-10,27.7-22.3C700.3,477.9,687.9,467.9,672.6,467.9z M141.2,467.9V278.8h479.1V468L141.2,467.9&#10;&#9;&#9;&#9;L141.2,467.9z"/>
		<path id="el_m8SrY8GCMc" d="M91,467.9h581.7c15.3,0,27.7,10,27.7,22.3H63.3C63.3,477.9,75.7,467.9,91,467.9z M91,234.1&#10;&#9;&#9;&#9;h581.7c15.3,0,27.7,10,27.7,22.3H63.3C63.3,244.1,75.7,234.1,91,234.1z"/>
		<path id="el_05mLkqLTom" d="M230.9,245.3h-55.7c-6.1,0-11.1-5-11.1-11.1l0,0H242l0,0&#10;&#9;&#9;&#9;C242.1,240.3,237.1,245.3,230.9,245.3z M358.9,234.1L358.9,234.1H281l0,0c0,6.1,5,11.1,11.1,11.1h55.7&#10;&#9;&#9;&#9;C353.9,245.3,358.9,240.3,358.9,234.1z M475.8,234.1L475.8,234.1h-77.9l0,0c0,6.1,5,11.1,11.1,11.1h55.7&#10;&#9;&#9;&#9;C470.8,245.3,475.8,240.3,475.8,234.1z"/>
		<path id="el_JJvxF9lRyPF" d="M219.8,245.3h-33.4V100.6h33.4V245.3z M225.4,78.3h-44.6c-3.1,0-5.6,2.5-5.6,5.6l0,0&#10;&#9;&#9;&#9;c0,3.1,2.5,5.6,5.6,5.6h44.5c3.1,0,5.6-2.5,5.6-5.6l0,0C230.9,80.8,228.4,78.3,225.4,78.3z M336.7,100.6h-33.4v144.7h33.4V100.6z&#10;&#9;&#9;&#9; M342.2,78.3h-44.5c-3.1,0-5.6,2.5-5.6,5.6l0,0c0,3.1,2.5,5.6,5.6,5.6h44.5c3.1,0,5.6-2.5,5.6-5.6l0,0&#10;&#9;&#9;&#9;C347.8,80.8,345.3,78.3,342.2,78.3z M453.5,100.6h-33.4v144.7h33.4V100.6z M459.1,78.3h-44.5c-3.1,0-5.6,2.5-5.6,5.6l0,0&#10;&#9;&#9;&#9;c0,3.1,2.5,5.6,5.6,5.6h44.5c3.1,0,5.6-2.5,5.6-5.6l0,0C464.7,80.8,462.2,78.3,459.1,78.3z"/>
	</g>
	<path id="el_McDZqwj35-X" d="M584.6,245.3h-55.7c-6.1,0-11.1-5-11.1-11.1l0,0h77.9l0,0C595.7,240.3,590.7,245.3,584.6,245.3&#10;&#9;&#9;z"/>
	<path id="el_RpBdpMuSrud" d="M127,423.4V278.8h-22.3v167l0,0C117,445.6,127,435.8,127,423.4z"/>
	<path d="M502.8,176.4" id="el_itIDkltDNon"/>
	<path d="M527.8,416.4" id="el_ov2zDuEf5r3"/>
	<path d="M461.9,278.8" id="el_7HaRQFSNXrc"/>
	<path id="el_FVVJjZO07iY" d="M642.5,423.4V278.8h-22.3v167l0,0C632.5,445.6,642.5,435.8,642.5,423.4z"/>
	<g id="el_KF4e2t4JWYP">
	</g>
</g>
<g id="el_gBfYD7wP2lC">
	<path id="el_Q7Xjb0GOS3z" d="M212.4,185.2h-22.3c-2.4,0-4.4-2-4.4-4.4l0,0h31.2l0,0C216.9,183.2,214.9,185.2,212.4,185.2z&#10;&#9;&#9; M263.6,180.7L263.6,180.7h-31.2l0,0c0,2.4,2,4.4,4.4,4.4h22.3C261.6,185.2,263.6,183.2,263.6,180.7z M310.4,180.7L310.4,180.7&#10;&#9;&#9;h-31.2l0,0c0,2.4,2,4.4,4.4,4.4H306C308.4,185.2,310.4,183.2,310.4,180.7z"/>
	<path id="el_1u4zXOgJRmG" d="M353.9,185.2h-22.3c-2.4,0-4.4-2-4.4-4.4l0,0h31.2l0,0C358.4,183.2,356.4,185.2,353.9,185.2z"/>
</g>
<g id="el_yUwXdIgylHU_0hPEMJAK0" data-animator-group="true" data-animator-type="0"><g id="el_yUwXdIgylHU">
	<path id="el_Dg4ZwwMF_dL" d="M354,118.4h-22.3c-2.4,0-4.4,2.2-4.4,4.9c0,2.7,2,4.9,4.4,4.9V253c0,6.8,5,12.2,11.1,12.2&#10;&#9;&#9;s11.1-5.5,11.1-12.2V128.2c2.4,0,4.4-2.2,4.4-4.9C358.4,120.6,356.4,118.4,354,118.4z"/>
	<path id="el_PLWJEWWsM15" d="M349.5,254.2v-64.6h-13.4v64.6c0,3.7,3,6.7,6.7,6.7l0,0C346.5,260.9,349.5,257.9,349.5,254.2z"/>
	<path id="el_JZUsaYdzqvV" d="M342.8,260.9L342.8,260.9c-3.7,0-6.7-3-6.7-6.7v-46.8h13.4v46.8&#10;&#9;&#9;C349.5,257.9,346.5,260.9,342.8,260.9z"/>
	<path id="el_zZ4GabGRbRk" d="M342.8,260.9L342.8,260.9c-3.7,0-6.7-3-6.7-6.7v-37.8h13.4v37.8&#10;&#9;&#9;C349.5,257.9,346.5,260.9,342.8,260.9z"/>
	<g id="el_8jzrge_q39m">
		<polygon points="336.1,174.1 336.1,185.2 336.1,207.4 349.4,207.4 349.4,185.2 349.5,185.2 349.5,127.3 336.1,127.3 &#10;&#9;&#9;&#9;&#9;&#9;" id="el_38pvoJom7jR"/>
		<path d="M351.7,118.4h-17.8c-1.2,0-2.2,1-2.2,2.2c0,1.2,1,2.2,2.2,2.2h17.8c1.2,0,2.2-1,2.2-2.2&#10;&#9;&#9;&#9;C353.9,119.4,352.9,118.4,351.7,118.4z" id="el_DKMg_iF1jhu"/>
	</g>
</g></g>
<g id="el_MMANUjz-8an_AXV2cSGsJ" data-animator-group="true" data-animator-type="0"><g id="el_MMANUjz-8an">
	<path id="el_am4bqIqu0RC" d="M211.3,118.4H189c-2.4,0-4.4,2.2-4.4,4.9c0,2.7,2,4.9,4.4,4.9V253c0,6.8,5,12.2,11.1,12.2&#10;&#9;&#9;s11.1-5.5,11.1-12.2V128.2c2.4,0,4.4-2.2,4.4-4.9C215.7,120.6,213.7,118.4,211.3,118.4z"/>
	<path id="el_uSlVd-5Mqlr" d="M206.8,254.2v-64.6h-13.4v64.6c0,3.7,3,6.7,6.7,6.7l0,0C203.8,260.9,206.8,257.9,206.8,254.2z"/>
	<path id="el_QacdWlp6bpU" d="M200.1,260.9L200.1,260.9c-3.7,0-6.7-3-6.7-6.7v-46.8h13.4v46.8&#10;&#9;&#9;C206.8,257.9,203.8,260.9,200.1,260.9z"/>
	<path id="el_gaBQx-60_Q9" d="M200.1,260.9L200.1,260.9c-3.7,0-6.7-3-6.7-6.7v-37.8h13.4v37.8&#10;&#9;&#9;C206.8,257.9,203.8,260.9,200.1,260.9z"/>
	<g id="el_BaUAErDNNLZ">
		<path d="M209,118.4h-17.8c-1.2,0-2.2,1-2.2,2.2c0,1.2,1,2.2,2.2,2.2H209c1.2,0,2.2-1,2.2-2.2&#10;&#9;&#9;&#9;C211.2,119.4,210.2,118.4,209,118.4z" id="el_vyDCG47yw_I"/>
		<polygon points="193.4,185.2 193.4,207.4 206.8,207.4 206.8,185.2 206.8,127.3 193.4,127.3 &#9;&#9;" id="el_PYK1Rn62pvc"/>
	</g>
</g></g>
<g id="el_kg_WwH-KDP0_kcUpd_YuK" data-animator-group="true" data-animator-type="0"><g id="el_kg_WwH-KDP0">
	<path id="el_0sWhs8aneXM" d="M259.2,118.4h-22.3c-2.4,0-4.4,2.2-4.4,4.9c0,2.7,2,4.9,4.4,4.9V253c0,6.8,5,12.2,11.1,12.2&#10;&#9;&#9;s11.1-5.5,11.1-12.2V128.2c2.4,0,4.4-2.2,4.4-4.9C263.7,120.6,261.7,118.4,259.2,118.4z"/>
	<path id="el_FWHF_pnTD-U" d="M254.7,254.2v-64.6h-13.4v64.6c0,3.7,3,6.7,6.7,6.7l0,0C251.7,260.9,254.7,257.9,254.7,254.2z"/>
	<path id="el_zYfOeHhkNw8" d="M248,260.9L248,260.9c-3.7,0-6.7-3-6.7-6.7v-46.8h13.4v46.8C254.7,257.9,251.7,260.9,248,260.9&#10;&#9;&#9;z"/>
	<path id="el_3MZxBhDiIT9" d="M248,260.9L248,260.9c-3.7,0-6.7-3-6.7-6.7v-37.8h13.4v37.8C254.7,257.9,251.7,260.9,248,260.9&#10;&#9;&#9;z"/>
	<polygon points="241.3,127.3 241.3,178.9 241.3,185.2 241.3,207.4 254.6,207.4 254.6,194.7 254.7,194.7 254.7,185.2 &#10;&#9;&#9;254.7,180.6 254.7,127.3 &#9;" id="el_-RkgKK_Vvfb"/>
	<path d="M256.9,118.4h-17.8c-1.2,0-2.2,1-2.2,2.2c0,1.2,1,2.2,2.2,2.2h17.8c1.2,0,2.2-1,2.2-2.2&#10;&#9;&#9;C259.2,119.4,258.1,118.4,256.9,118.4z" id="el_lCvd7lAzw1d"/>
</g></g>
<g id="el__erbawlFmOr_Huw3sz2p9" data-animator-group="true" data-animator-type="0"><g id="el__erbawlFmOr">
	<path id="el__8i4iPiQfHZ" d="M306.6,118.4h-22.3c-2.4,0-4.4,2.2-4.4,4.9c0,2.7,2,4.9,4.4,4.9V253c0,6.8,5,12.2,11.1,12.2&#10;&#9;&#9;s11.1-5.5,11.1-12.2V128.2c2.4,0,4.4-2.2,4.4-4.9C311,120.6,309,118.4,306.6,118.4z"/>
	<path id="el_gJ5GQepYOhV" d="M294.8,260.9L294.8,260.9c-3.7,0-6.7-3-6.7-6.7v-64.6h13.4v64.6&#10;&#9;&#9;C301.4,257.9,298.4,260.9,294.8,260.9z"/>
	<path id="el_2kJavg-jSqh" d="M294.8,260.9L294.8,260.9c-3.7,0-6.7-3-6.7-6.7v-46.8h13.4v46.8&#10;&#9;&#9;C301.4,257.9,298.4,260.9,294.8,260.9z"/>
	<path id="el_MHxKsYNTFq_" d="M294.8,260.9L294.8,260.9c-3.7,0-6.7-3-6.7-6.7v-37.8h13.4v37.8&#10;&#9;&#9;C301.4,257.9,298.4,260.9,294.8,260.9z"/>
	<polygon points="288.1,127.3 288.1,180.4 288.1,185.2 288.1,207.4 301.4,207.4 301.4,204.4 301.4,204.4 301.4,185.2 &#10;&#9;&#9;301.4,179.9 301.4,127.3 &#9;" id="el_q32NavAENuL"/>
	<path d="M303.6,118.4h-17.8c-1.2,0-2.2,1-2.2,2.2c0,1.2,1,2.2,2.2,2.2h17.8c1.2,0,2.2-1,2.2-2.2&#10;&#9;&#9;C305.9,119.4,304.9,118.4,303.6,118.4z" id="el_evV1FW0FgVq"/>
</g></g>
<g id="el_aJZO-fISVcH">
	<g id="el_X2-rBezd1Dx">
		<path id="el_wG6drmBiRuz" d="M124,287.9c-3.2,2.7-7.2,4.1-11.4,4.1H38.7c-4.2,0-8.2-1.4-11.4-4.1&#10;&#9;&#9;&#9;C10.6,274,0,253.1,0,229.7C0,201,16,176,39.6,163.2c8.6-4.7,13.8-13.8,13.8-23.5v-39.4c-2.6-0.9-4.4-3.4-4.4-6.3l0,0&#10;&#9;&#9;&#9;c0-3.7,3-6.7,6.7-6.7h40.1c3.7,0,6.7,3,6.7,6.7l0,0c0,2.9-1.9,5.4-4.4,6.3v39.6c0,9.7,5.2,18.7,13.8,23.4&#10;&#9;&#9;&#9;c23.2,12.6,39.1,37,39.6,65.1C151.8,252.3,141.1,273.8,124,287.9z"/>
		<path id="el_HKbSOzLboIg" d="M107.6,171.6c20.5,11.2,34.6,32.9,34.8,57.8c0.2,20.3-8.6,38.5-22.6,50.9&#10;&#9;&#9;&#9;c-1.8,1.5-4,2.4-6.3,2.4H37.8c-2.3,0-4.6-0.8-6.3-2.4C17.6,268,8.9,250.1,8.9,230.2c0-25.2,14-47.2,34.7-58.6&#10;&#9;&#9;&#9;c11.5-6.3,18.8-18.2,18.8-31.3v-35.2c0-2.4,2-4.4,4.4-4.4h17.8c2.4,0,4.4,2,4.4,4.4v35.5C89,153.6,96.2,165.4,107.6,171.6z&#10;&#9;&#9;&#9; M93.5,91.7L93.5,91.7c0-2.4-2-4.4-4.4-4.4H62.3c-2.4,0-4.4,2-4.4,4.4l0,0c0,2.4,2,4.4,4.4,4.4H89C91.5,96.2,93.5,94.2,93.5,91.7z&#10;&#9;&#9;&#9;"/>
	</g>
</g>
<g id="el_o4n_g_Q9KUs">
	<rect x="73.2" y="39" width="117.4" height="5.2" id="el_4YgH4JeJ69z"/>
	<g id="el_Pi1uyZJCGaC">
		<rect x="202.5" y="21.1" width="151.4" height="53.6" id="el_kvDRIYQK9QK"/>
		<rect x="189.3" y="21.1" width="13.2" height="53.6" id="el_Dg-cvtU8tuJ"/>
		<rect x="198.7" y="21.1" width="3.8" height="53.6" id="el_GHIZKyO_E-b"/>
		<g id="el_-hakqTIOtzv">
			<line x1="277.5" y1="0" x2="277.5" y2="-1.9" id="el_oiZiVhPo3ud"/>
			<line x1="297.4" y1="-1.9" x2="297.4" y2="0" id="el_vlkDCan70Gi"/>
		</g>
		<rect x="180.5" y="74.7" width="190.3" height="9.6" id="el_BDt80MPSR7f"/>
		<rect x="166.1" y="74.7" width="22.7" height="9.6" id="el_QpFrMoDhhv5"/>
		<g id="el_IldaqHVA6gs">
			<rect x="188.3" y="84.3" width="10" height="18" id="el_wzVdfjIpIY7"/>
			<rect x="198.3" y="84.3" width="13.6" height="18" id="el_bdw57hyHdRj"/>
		</g>
		<g id="el_9FX7kmVbMWx">
			<rect x="177" y="102.3" width="19.6" height="7.2" id="el_Lyx2nfgNkML"/>
			<rect x="196.6" y="102.3" width="26.7" height="7.2" id="el_Ehm7ggoEpeA"/>
		</g>
	</g>
	<g id="el_vcZfGR5IH0O">
		<rect x="236.3" y="84.3" width="10" height="18" id="el_QAJ6qPwId7x"/>
		<rect x="246.3" y="84.3" width="13.6" height="18" id="el_bUmtCaUiCcM"/>
	</g>
	<g id="el_9NfzjhZ-FwJ">
		<rect x="224.9" y="102.3" width="19.6" height="7.2" id="el_ZlujFhwOKaV"/>
		<rect x="244.5" y="102.3" width="26.7" height="7.2" id="el_wXpRxe2WfrI"/>
	</g>
	<g id="el_7nnettvhB9h">
		<rect x="283" y="84.3" width="10" height="18" id="el_-QJq54_Qh5I"/>
		<rect x="293" y="84.3" width="13.6" height="18" id="el__NVr8sD6-bW"/>
	</g>
	<g id="el_RaaUoB6i3jy">
		<rect x="273.1" y="102.3" width="19.6" height="7.2" id="el_fzcdPTaHJAL"/>
		<rect x="292.7" y="102.3" width="26.7" height="7.2" id="el_OuBJOgD_8XV"/>
	</g>
	<g id="el_vlmaVZQUJcX">
		<rect x="331.7" y="84.3" width="10" height="18" id="el_iADRUZy0bFd"/>
		<rect x="341.7" y="84.3" width="13.6" height="18" id="el_pUCu1CSs0xL"/>
	</g>
	<g id="el_JQqXiABqyfo">
		<rect x="322.2" y="102.3" width="19.6" height="7.2" id="el_TBG4vRfAhMr"/>
		<rect x="341.8" y="102.3" width="26.7" height="7.2" id="el_MgvePzn6uhj"/>
	</g>
</g>
<g id="el_BzTExsFQbKc">
	<path id="el_n1O0Jqu9hsi" d="M170.9,256.4v-57.9H162v66.8l0,0C166.9,265.3,170.9,261.4,170.9,256.4z"/>
	<path id="el_Q8FAOMMumjt" d="M377.1,256.4v-57.9h-8.9v66.8l0,0C373.1,265.3,377.1,261.4,377.1,256.4z"/>
	<path d="M389.1,274.2h-5.5v-75.7h5.5c6.1,0,11.1-4,11.1-8.9s-5-8.9-11.1-8.9h-30.8c0,2.4-2,4.4-4.4,4.4h-22.3&#10;&#9;&#9;c-2.4,0-4.4-2-4.4-4.4h-16.8c0,2.4-2,4.4-4.4,4.4h-22.3c-2.4,0-4.4-2-4.4-4.4h-15.6c0,2.4-2,4.4-4.4,4.4h-22.3&#10;&#9;&#9;c-2.4,0-4.4-2-4.4-4.4h-15.6c0,2.4-2,4.4-4.4,4.4h-22.3c-2.4,0-4.4-2-4.4-4.4h-29.3c-6.1,0-11.1,4-11.1,8.9s5,8.9,11.1,8.9h5.6&#10;&#9;&#9;v75.7h-5.5c-6.1,0-11.1,4-11.1,8.9c0,4.9,5,8.9,11.1,8.9h5.5h22.2h177.3h22.2h5.5c6.1,0,11.1-4,11.1-8.9&#10;&#9;&#9;C400.2,278.2,395.2,274.2,389.1,274.2z M368.2,274.2H176.6v-75.7h191.6V274.2z" id="el_H0EVIasuegJ"/>
	<path d="M389.1,180.7h-30.8c0,2.4-2,4.4-4.4,4.4h-22.3c-2.4,0-4.4-2-4.4-4.4h-16.8c0,2.4-2,4.4-4.4,4.4h-22.3&#10;&#9;&#9;c-2.4,0-4.4-2-4.4-4.4h-15.6c0,2.4-2,4.4-4.4,4.4h-22.3c-2.4,0-4.4-2-4.4-4.4h-15.6c0,2.4-2,4.4-4.4,4.4h-22.3&#10;&#9;&#9;c-2.4,0-4.4-2-4.4-4.4h-29.3c-6.1,0-11.1,4-11.1,8.9h254.8C400.2,184.7,395.2,180.7,389.1,180.7z" id="el_RChLneLZm5u"/>
	<path id="el_QKcfWjDbsY6" d="M156.5,274.2h232.7c6.1,0,11.1,4,11.1,8.9H145.4C145.4,278.2,150.4,274.2,156.5,274.2z"/>
	<path id="el_UeRIDW36LRa" d="M170.9,256.4v-57.9H162v66.8l0,0C166.9,265.3,170.9,261.4,170.9,256.4z"/>
	<path id="el_UdKFuMdk1_v" d="M377.1,256.4v-57.9h-8.9v66.8l0,0C373.1,265.3,377.1,261.4,377.1,256.4z"/>
</g>
<g id="el__xsK1QsNsSf">
	<path id="el_Z0lhih_izmc" d="M219.8,245.3h-33.4v-11.1h33.4V245.3z M336.7,234.1h-33.4v11.2h33.4V234.1z M453.5,234.1&#10;&#9;&#9;h-33.4v11.2h33.4V234.1z"/>
	<path id="el_O_Wdk49wZiC" d="M573.5,234.1h-33.4v11.2h33.4V234.1z"/>
</g>
<path d="M78.9,44.1c0.6-0.7,1-1.5,1-2.4c0-2.1-1.9-3.8-4.2-3.8s-4.2,1.7-4.2,3.8c0,0.9,0.4,1.8,1,2.4&#10;&#9;c-7.8,1.4-13.8,7.6-13.8,15.1v25.7c0,0.5,0.4,0.8,0.9,0.8s0.9-0.4,0.9-0.8V59.2c0-6.6,5.1-12.1,12-13.4c-0.5,0.7-1,1.7-1.5,2.9&#10;&#9;c-1,2.8-1.6,6.6-1.6,10.5v25.7c0,0.5,0.4,0.8,0.9,0.8c0.5,0,0.9-0.4,0.9-0.8V59.2c0-8.5,2.6-13.7,4.5-13.7s4.5,5.2,4.5,13.7v25.7&#10;&#9;c0,0.5,0.4,0.8,0.9,0.8s0.9-0.4,0.9-0.8V59.2c0-4-0.6-7.7-1.6-10.5c-0.4-1.2-0.9-2.1-1.5-2.9c6.8,1.3,12,6.8,12,13.4v25.7&#10;&#9;c0,0.5,0.4,0.8,0.9,0.8c0.5,0,0.9-0.4,0.9-0.8V59.2C92.7,51.7,86.7,45.5,78.9,44.1z M73.3,41.7c0-1.2,1.1-2.1,2.4-2.1&#10;&#9;c1.3,0,2.4,1,2.4,2.1s-1.1,2.1-2.4,2.1C74.4,43.9,73.3,42.9,73.3,41.7z" id="el_8cPtTEzn5DA"/>
<rect x="58.7" y="85" width="34" height="3.5" id="el_d2lANU8L0Rk"/>
<path d="M93,85.7H58.4c-0.5,0-0.9-0.3-0.9-0.8s0.4-0.8,0.9-0.8H93c0.5,0,0.9,0.3,0.9,0.8S93.5,85.7,93,85.7z" id="el_xH8esw9hTkz"/>
<path d="M347.2,32.6c0,2.2-1.6,6.7-3.8,6.7h-14.7c-2.2,0-3.8-4.5-3.8-6.7l0,0c0-2.2,1.6-3.8,3.8-3.8h15&#10;&#9;C345.6,28.7,347.2,30.3,347.2,32.6L347.2,32.6z" id="el_B_h0QaL2azR"/>
<path d="M347.2,32.6c0,2.2-1.6,3.8-3.8,3.8h-14.7c-2.2,0-3.8-1.6-3.8-3.8l0,0c0-2.2,1.6-3.8,3.8-3.8h15&#10;&#9;C345.6,28.7,347.2,30.3,347.2,32.6L347.2,32.6z" id="el_3Xla4SCWkAc"/>
<path d="M343.6,28.1h-15c-1.6,0-3.2,1.6-3.5,3.2c0.3,1.6,1.9,2.9,3.5,2.9h15c1.6,0,3.2-1.3,3.5-2.9&#10;&#9;C346.5,29.7,345.2,28.1,343.6,28.1z" id="el_8qiW7l868pG"/>
<path d="M343.6,28.7h-15c-1.6,0-3.2,1.3-3.5,2.9c0.3,1.6,1.9,2.9,3.5,2.9h15c1.6,0,3.2-1.3,3.5-2.9&#10;&#9;C346.5,29.7,345.2,28.7,343.6,28.7z" id="el_xc0XoBcbGnZ"/>
<path d="M328.6,34.2h15c1.6,0,3.2-1.3,3.5-2.9c-0.3-1.6-1.9-2.9-3.5-2.9" id="el_NCcZPq_zT08"/>
<path d="M347.3,62.5c0,2.2-1.6,6.7-3.8,6.7h-14.7c-2.2,0-3.8-4.5-3.8-6.7l0,0c0-2.2,1.6-3.8,3.8-3.8h15&#10;&#9;C345.7,58.6,347.3,60.2,347.3,62.5L347.3,62.5z" id="el_PBOAFUCz5mS"/>
<path d="M347.3,62.5c0,2.2-1.6,3.8-3.8,3.8h-14.7c-2.2,0-3.8-1.6-3.8-3.8l0,0c0-2.2,1.6-3.8,3.8-3.8h15&#10;&#9;C345.7,58.6,347.3,60.2,347.3,62.5L347.3,62.5z" id="el_IAxOP8-xHGT"/>
<path d="M343.8,58h-15c-1.6,0-3.2,1.6-3.5,3.2c0.3,1.6,1.9,2.9,3.5,2.9h15c1.6,0,3.2-1.3,3.5-2.9&#10;&#9;C346.7,59.6,345.4,58,343.8,58z" id="el_Mtftb7ieUzS"/>
<path d="M343.8,58.6h-15c-1.6,0-3.2,1.3-3.5,2.9c0.3,1.6,1.9,2.9,3.5,2.9h15c1.6,0,3.2-1.3,3.5-2.9&#10;&#9;C346.7,59.6,345.4,58.6,343.8,58.6z" id="el_n5hrU-jw0Al"/>
<path d="M328.8,64.1h15c1.6,0,3.2-1.3,3.5-2.9c-0.3-1.6-1.9-2.9-3.5-2.9" id="el_nWqEm_C-Q3u"/>
<path d="M347.5,47.4c0,2.2-1.6,6.7-3.8,6.7h-14.7c-2.2,0-3.8-4.5-3.8-6.7l0,0c0-2.2,1.6-3.8,3.8-3.8h15&#10;&#9;C345.9,43.6,347.5,45.2,347.5,47.4L347.5,47.4z" id="el_Ik2SP57JQus"/>
<path d="M347.5,47.4c0,2.2-1.6,3.8-3.8,3.8h-14.7c-2.2,0-3.8-1.6-3.8-3.8l0,0c0-2.2,1.6-3.8,3.8-3.8h15&#10;&#9;C345.9,43.6,347.5,45.2,347.5,47.4L347.5,47.4z" id="el_9wu0xx96fRy"/>
<path d="M344,43h-15c-1.6,0-3.2,1.6-3.5,3.2c0.3,1.6,1.9,2.9,3.5,2.9h15c1.6,0,3.2-1.3,3.5-2.9&#10;&#9;C346.8,44.9,345.6,43,344,43z" id="el_79Dvyo4RQPh"/>
<path d="M344,43.6h-15c-1.6,0-3.2,1.3-3.5,2.9c0.3,1.6,1.9,2.9,3.5,2.9h15c1.6,0,3.2-1.3,3.5-2.9&#10;&#9;C346.8,44.9,345.6,43.6,344,43.6z" id="el_-jvl7CKZ23x"/>
<path d="M328.9,49h15c1.6,0,3.2-1.3,3.5-2.9c-0.3-1.6-1.9-2.9-3.5-2.9" id="el_awCkzvIRRIg"/>


<g id="el_kRaACCFTWwv">
	<path d="M151,222.3H0.4c-0.2,2.4-0.4,4.9-0.4,7.4c0,23.4,10.6,44.3,27.4,58.2c3.2,2.7,7.2,4.1,11.4,4.1h73.9&#10;&#9;&#9;c4.2,0,8.2-1.4,11.4-4.1c17-14.2,27.8-35.6,27.4-59.6C151.4,226.3,151.2,224.3,151,222.3z" id="el_EaTOiAtElmy"/>
</g>

</svg>