<svg version="1.1" id="el_LhhZ6KNxd" xmlns="http://www.w3.org/2000/svg" xmlns:xlink="http://www.w3.org/1999/xlink" x="0px" y="0px" viewBox="0 0 400 292" style="enable-background:new 0 0 400.2 292.1;" xml:space="preserve"><style>#el_TSuoEqk1hb{fill: #E2AF76;}#el_p_ZMHc4X5g{display: none;}#el_I9eZnY7CGt{display: inline;fill: #BDCBC7;}#el_R39bnW7EIV{display: inline;}#el_EiPx9VfuWW{fill: #BDCBC7;}#el_XJb4ISE_8Z{fill: #E0E5DA;}#el_hBRe1iKoZG{fill: #96BA74;}#el_94CZ7EPaYG{fill: #31542D;}#el_mBDAqZ4S5C{fill: #88A1AF;}#el_T6jknxkpbg{fill: #495559;}#el_dT5HhHfm5H{fill: #876866;}#el_VTMMTs2jfp{fill: #4F3733;}#el_3exGs9k8u4{fill: #361C0A;}#el_W6tg7aZ9sc{fill: #7C4627;}#el_PPg2FtZPdq{fill: #513A2B;}#el_ten8mdMKQCV{fill: #E0E5DA;}#el_JGsJvmlvSQG{display: inline;fill: #513A2B;}#el_lZRGbllzuYm{display: inline;fill: #7C4627;}#el_Gy3fnnmHZie{display: inline;fill: #7C4627;}#el_XGTx2As9F56{display: inline;fill: #7C4627;}#el_I5NUXW15019{display: inline;fill: #361C0A;}#el_re5Osv5y-Su{display: inline;fill: #7C4627;}#el_pznk_GgqoRD{display: inline;}#el_0c_gK0dKg5o{fill: #513A2B;}#el_H4CC0nlaDZB{fill: #513A2B;}#el_dOlLJDEBeCE{fill: #BDCBC7;}#el_Ux5pN6hWFY2{fill: #E0E5DA;}#el_YUDIS1kvHyA{fill: #D46456;}#el_iRwqxWoDEHC{fill: #6F2917;}#el_60Uh6hh6Cv3{fill: #E0E5DA;}#el_Ltg4_3Q3HKG{fill: #E0E5DA;}#el_3Vy21VE5ldc{fill: #BDCBC7;}#el_ye2Xu3rxXh5{fill: #E0E5DA;}#el_pkSFKb08Q-J{fill: #876866;}#el_Ts77QU32e6Q{fill: #4F3733;}#el_U_8lcblGmau{fill: #E0E5DA;}#el_BvR8w6-vETp{fill: #E0E5DA;}#el_VF0A6GSy9Qg{fill: #BDCBC7;}#el_RKOlA6BlUi4{fill: #E0E5DA;}#el_9B3whQxXtFk{fill: #88A1AF;}#el_NgNZZbuQALP{fill: #495559;}#el_NB2LvkLyLGL{fill: #E0E5DA;}#el_ANJvUUrKV0e{fill: #E0E5DA;}#el_2HOzvo2onyu{fill: #BDCBC7;}#el_OmxZL6ZmfTR{fill: #E0E5DA;}#el_BaOJw6D1w-V{fill: #96BA74;}#el_6HCsmJSocKJ{fill: #31542D;}#el_Ys5H4stnrFJ{fill: #E0E5DA;}#el_t05oXiSdlgx{fill: #E0E5DA;}#el_OaP5lesvZkd{fill: #BFC4C2;}#el_hT3c0w9QeZE{fill: #E0E5DA;}#el_JAeOd5bIiMe{fill: #CCCCCC;}#el_PIH1OFy-iYU{fill: #CCCCCC;}#el_q3TXITSX46r{fill: #808080;}#el_jnbZT0KzmBM{fill: #808080;}#el_-4-hhcbqz55{fill: #999999;}#el_zQgY_G3BhhA{fill: #999999;}#el_a-mrhR4qGIB{fill: #999999;}#el_rCpmiNOauu8{fill: #808080;}#el_02k8j5kdj0v{fill: #B3B3B3;}#el_SvMsRqT2FbS{fill: #CCCCCC;}#el_OhFH2R7CGk6{fill: #B3B3B3;}#el_zVjGOEzY41J{fill: #CCCCCC;}#el_ExImBoecjcP{fill: #B3B3B3;}#el_gmceJw-JIXp{fill: #CCCCCC;}#el_4MFQFJmzlmW{fill: #B3B3B3;}#el_2BTRVJp41va{fill: #CCCCCC;}#el_n5nXlopTFV0{fill: #B3B3B3;}#el_2R2tXC98WBK{fill: #CCCCCC;}#el_mveHBm8daaA{fill: #B3B3B3;}#el_SYrOJqD04KD{fill: #CCCCCC;}#el_kEzWmqVNi3j{fill: #B3B3B3;}#el_ikv8WffSxrs{fill: #CCCCCC;}#el_GejuM74GMTh{fill: #B3B3B3;}#el_vmq1dzD3KrF{fill: #CCCCCC;}#el_yZDC2VyqITf{fill: #7C4627;}#el_hbRAUIubIkF{fill: #7C4627;}#el_9mCPSAJ2YPR{fill: #361C0A;}#el_2RwG5LPpPxH{fill: #7C4627;}#el_2OA2fRM01U4{fill: #7C4627;}#el_fmESn97HpsS{fill: #7C4627;}#el_LvRsoeG8iYk{fill: #7C4627;}#el_3efO6T2NFOL{display: none;}#el_sBK1URYVqbP{display: inline;fill: #9BA09A;}#el_kUX45uekKlq{display: inline;fill: #9BA09A;}#el_Lw2LGzbh-l7{fill: #CCCCCC;}#el_riri1Ofid8N{fill: #FF6A2E;}#el_ThuevivNG0J{fill: #F24802;}#el_7shc_OK5sTD{fill: #84A6AD;}#el_DKRaKoBYz4_{fill: #306687;}#el_PIMIgYIxfCV{fill: #27A7C4;}#el_pzKPNQe6UTQ{fill: #2D8CA5;}#el_xqteO3ZDgF1{fill: #227B93;}#el_tiX2CfkFCm0{fill: #84A6AD;}#el_ODJQH4L60YR{fill: #990000;}#el_mOkF2PF7vH5{fill: #F73131;}#el_NZW04agYeUs{fill: #D10D0D;}#el_M55CP_xfWfF{fill: #B70404;}#el_x1sRF2ggQaH{fill: #84A6AD;}#el_G4gHTGSeUkc{fill: #599316;}#el_RAkr7hhnCKW{fill: #8FDD3C;}#el_aBjuLDtGu2X{fill: #79C430;}#el_A7qiu6_Jpvr{fill: #67AD1E;}#el_JdvFzQ40NuJ_-WpZ6-0Gd{-webkit-transform-origin: 50% 50%;transform-origin: 50% 50%;transform-box: fill-box;}#el_zt2x5CeDdIv_BFmq6XbD7{-webkit-transform-origin: 50% 50%;transform-origin: 50% 50%;transform-box: fill-box;}#el_7Fb0Rr_LtQ1_V6azDXLW_{-webkit-transform-origin: 50% 50%;transform-origin: 50% 50%;transform-box: fill-box;}#el_43N3G5fG1KR_Z73XCyjnx7{-webkit-transform-origin: 50% 50%;transform-origin: 50% 50%;transform-box: fill-box;}</style>

<path d="M367,8.1c-7.2-7.2-18.9-7.2-26.1,0s-7.2,18.9,0,26.1s18.9,7.2,26.1,0C374.2,27,374.2,15.3,367,8.1z M363.6,28.7&#10;&#9;L358,23c0.5-1.2,0.5-2.5,0-3.7l5.7-5.7C367.1,18.1,367.1,24.3,363.6,28.7z M361.5,11.5l-5.7,5.7c-1.2-0.5-2.5-0.5-3.7,0l-5.7-5.7&#10;&#9;C350.9,8.1,357.1,8.1,361.5,11.5z M344.4,13.7l5.7,5.7c-0.5,1.2-0.5,2.5,0,3.7l-5.7,5.7C340.9,24.3,340.9,18.1,344.4,13.7z&#10;&#9; M346.5,30.8l5.7-5.7c1.2,0.5,2.5,0.5,3.7,0l5.7,5.7C357.1,34.3,350.9,34.3,346.5,30.8z" id="el_TSuoEqk1hb"/>
<g id="el_p_ZMHc4X5g">
	<path id="el_I9eZnY7CGt" d="M584.6,78.3h-55.7c-6.1,0-11.1,5.5-11.1,12.2c0,6.8,5,12.2,11.1,12.2V415&#10;&#9;&#9;c0,16.9,12.5,30.6,27.8,30.6s27.8-13.7,27.8-30.6V102.8c6.1,0,11.1-5.5,11.1-12.2C595.7,83.8,590.7,78.3,584.6,78.3z"/>
	<g id="el_R39bnW7EIV">
		<path id="el_EiPx9VfuWW" d="M475.8,90.6c0,6.8-5,12.2-11.1,12.2v312.2c0,16.9-12.5,30.6-27.8,30.6s-27.8-13.7-27.8-30.6&#10;&#9;&#9;&#9;V102.8c-6.1,0-11.1-5.5-11.1-12.2c0-6.8,5-12.2,11.1-12.2h55.7C470.8,78.3,475.8,83.8,475.8,90.6z M347.8,78.3h-55.7&#10;&#9;&#9;&#9;c-6.1,0-11.1,5.5-11.1,12.2c0,6.8,5,12.2,11.1,12.2V415c0,16.9,12.5,30.6,27.8,30.6s27.8-13.7,27.8-30.6V102.8&#10;&#9;&#9;&#9;c6.1,0,11.1-5.5,11.1-12.2C358.9,83.8,353.9,78.3,347.8,78.3z M230.9,78.3h-55.7c-6.1,0-11.1,5.5-11.1,12.2&#10;&#9;&#9;&#9;c0,6.8,5,12.2,11.1,12.2V415c0,16.9,12.5,30.6,27.8,30.6c15.4,0,27.8-13.7,27.8-30.6V102.8c6.1,0,11.1-5.5,11.1-12.2&#10;&#9;&#9;&#9;C242.1,83.8,237.1,78.3,230.9,78.3z"/>
		<path id="el_XJb4ISE_8Z" d="M436.8,434.6L436.8,434.6c-9.2,0-16.7-7.5-16.7-16.7V256.5h33.4v161.4&#10;&#9;&#9;&#9;C453.5,427.1,446.1,434.6,436.8,434.6z M336.7,417.9V256.5h-33.4v161.4c0,9.2,7.5,16.7,16.7,16.7l0,0&#10;&#9;&#9;&#9;C329.2,434.6,336.7,427.1,336.7,417.9z M219.8,417.9V256.5h-33.4v161.4c0,9.2,7.5,16.7,16.7,16.7l0,0&#10;&#9;&#9;&#9;C212.3,434.6,219.8,427.1,219.8,417.9z"/>
		<path id="el_hBRe1iKoZG" d="M436.8,434.6L436.8,434.6c-9.2,0-16.7-7.5-16.7-16.7V300.9h33.4v116.9&#10;&#9;&#9;&#9;C453.5,427.1,446.1,434.6,436.8,434.6z"/>
		<path id="el_94CZ7EPaYG" d="M436.8,434.6L436.8,434.6c-9.2,0-16.7-7.5-16.7-16.7v-94.6h33.4v94.6&#10;&#9;&#9;&#9;C453.5,427.1,446.1,434.6,436.8,434.6z"/>
		<path id="el_mBDAqZ4S5C" d="M320,434.6L320,434.6c-9.2,0-16.7-7.5-16.7-16.7V300.9h33.4v116.9&#10;&#9;&#9;&#9;C336.7,427.1,329.2,434.6,320,434.6z"/>
		<path id="el_T6jknxkpbg" d="M320,434.6L320,434.6c-9.2,0-16.7-7.5-16.7-16.7v-94.6h33.4v94.6&#10;&#9;&#9;&#9;C336.7,427.1,329.2,434.6,320,434.6z"/>
		<path id="el_dT5HhHfm5H" d="M203.1,434.6L203.1,434.6c-9.2,0-16.7-7.5-16.7-16.7V300.9h33.4v116.9&#10;&#9;&#9;&#9;C219.8,427.1,212.3,434.6,203.1,434.6z"/>
		<path id="el_VTMMTs2jfp" d="M203.1,434.6L203.1,434.6c-9.2,0-16.7-7.5-16.7-16.7v-94.6h33.4v94.6&#10;&#9;&#9;&#9;C219.8,427.1,212.3,434.6,203.1,434.6z"/>
		<path id="el_3exGs9k8u4" d="M672.6,467.9h-13.8V278.8h13.8c15.3,0,27.7-10,27.7-22.3c0-12.3-12.4-22.3-27.7-22.3H91&#10;&#9;&#9;&#9;c-15.3,0-27.7,10-27.7,22.3c0,12.3,12.4,22.3,27.7,22.3h13.8V468H91c-15.3,0-27.7,10-27.7,22.3s12.4,22.3,27.7,22.3h13.8h55.4&#10;&#9;&#9;&#9;h443.2h55.4h13.8c15.3,0,27.7-10,27.7-22.3C700.3,477.9,687.9,467.9,672.6,467.9z M141.2,467.9V278.8h479.1V468L141.2,467.9&#10;&#9;&#9;&#9;L141.2,467.9z"/>
		<path id="el_W6tg7aZ9sc" d="M91,467.9h581.7c15.3,0,27.7,10,27.7,22.3H63.3C63.3,477.9,75.7,467.9,91,467.9z M91,234.1&#10;&#9;&#9;&#9;h581.7c15.3,0,27.7,10,27.7,22.3H63.3C63.3,244.1,75.7,234.1,91,234.1z"/>
		<path id="el_PPg2FtZPdq" d="M230.9,245.3h-55.7c-6.1,0-11.1-5-11.1-11.1l0,0H242l0,0&#10;&#9;&#9;&#9;C242.1,240.3,237.1,245.3,230.9,245.3z M358.9,234.1L358.9,234.1H281l0,0c0,6.1,5,11.1,11.1,11.1h55.7&#10;&#9;&#9;&#9;C353.9,245.3,358.9,240.3,358.9,234.1z M475.8,234.1L475.8,234.1h-77.9l0,0c0,6.1,5,11.1,11.1,11.1h55.7&#10;&#9;&#9;&#9;C470.8,245.3,475.8,240.3,475.8,234.1z"/>
		<path id="el_ten8mdMKQCV" d="M219.8,245.3h-33.4V100.6h33.4V245.3z M225.4,78.3h-44.6c-3.1,0-5.6,2.5-5.6,5.6l0,0&#10;&#9;&#9;&#9;c0,3.1,2.5,5.6,5.6,5.6h44.5c3.1,0,5.6-2.5,5.6-5.6l0,0C230.9,80.8,228.4,78.3,225.4,78.3z M336.7,100.6h-33.4v144.7h33.4V100.6z&#10;&#9;&#9;&#9; M342.2,78.3h-44.5c-3.1,0-5.6,2.5-5.6,5.6l0,0c0,3.1,2.5,5.6,5.6,5.6h44.5c3.1,0,5.6-2.5,5.6-5.6l0,0&#10;&#9;&#9;&#9;C347.8,80.8,345.3,78.3,342.2,78.3z M453.5,100.6h-33.4v144.7h33.4V100.6z M459.1,78.3h-44.5c-3.1,0-5.6,2.5-5.6,5.6l0,0&#10;&#9;&#9;&#9;c0,3.1,2.5,5.6,5.6,5.6h44.5c3.1,0,5.6-2.5,5.6-5.6l0,0C464.7,80.8,462.2,78.3,459.1,78.3z"/>
	</g>
	<path id="el_JGsJvmlvSQG" d="M584.6,245.3h-55.7c-6.1,0-11.1-5-11.1-11.1l0,0h77.9l0,0C595.7,240.3,590.7,245.3,584.6,245.3&#10;&#9;&#9;z"/>
	<path id="el_lZRGbllzuYm" d="M127,423.4V278.8h-22.3v167l0,0C117,445.6,127,435.8,127,423.4z"/>
	<path d="M502.8,176.4" id="el_Gy3fnnmHZie"/>
	<path d="M527.8,416.4" id="el_XGTx2As9F56"/>
	<path d="M461.9,278.8" id="el_I5NUXW15019"/>
	<path id="el_re5Osv5y-Su" d="M642.5,423.4V278.8h-22.3v167l0,0C632.5,445.6,642.5,435.8,642.5,423.4z"/>
	<g id="el_pznk_GgqoRD">
	</g>
</g>
<g id="el_XizZ85f7vWd">
	<path id="el_0c_gK0dKg5o" d="M212.4,185.2h-22.3c-2.4,0-4.4-2-4.4-4.4l0,0h31.2l0,0C216.9,183.2,214.9,185.2,212.4,185.2z&#10;&#9;&#9; M263.6,180.7L263.6,180.7h-31.2l0,0c0,2.4,2,4.4,4.4,4.4h22.3C261.6,185.2,263.6,183.2,263.6,180.7z M310.4,180.7L310.4,180.7&#10;&#9;&#9;h-31.2l0,0c0,2.4,2,4.4,4.4,4.4H306C308.4,185.2,310.4,183.2,310.4,180.7z"/>
	<path id="el_H4CC0nlaDZB" d="M353.9,185.2h-22.3c-2.4,0-4.4-2-4.4-4.4l0,0h31.2l0,0C358.4,183.2,356.4,185.2,353.9,185.2z"/>
</g>
<g id="el_43N3G5fG1KR">
	<path id="el_dOlLJDEBeCE" d="M354,118.4h-22.3c-2.4,0-4.4,2.2-4.4,4.9c0,2.7,2,4.9,4.4,4.9V253c0,6.8,5,12.2,11.1,12.2&#10;&#9;&#9;s11.1-5.5,11.1-12.2V128.2c2.4,0,4.4-2.2,4.4-4.9C358.4,120.6,356.4,118.4,354,118.4z"/>
	<path id="el_Ux5pN6hWFY2" d="M349.5,254.2v-64.6h-13.4v64.6c0,3.7,3,6.7,6.7,6.7l0,0C346.5,260.9,349.5,257.9,349.5,254.2z"/>
	<path id="el_YUDIS1kvHyA" d="M342.8,260.9L342.8,260.9c-3.7,0-6.7-3-6.7-6.7v-46.8h13.4v46.8&#10;&#9;&#9;C349.5,257.9,346.5,260.9,342.8,260.9z"/>
	<path id="el_iRwqxWoDEHC" d="M342.8,260.9L342.8,260.9c-3.7,0-6.7-3-6.7-6.7v-37.8h13.4v37.8&#10;&#9;&#9;C349.5,257.9,346.5,260.9,342.8,260.9z"/>
	<g id="el_jlBUYTzoAbV">
		<polygon points="336.1,174.1 336.1,185.2 336.1,207.4 349.4,207.4 349.4,185.2 349.5,185.2 349.5,127.3 336.1,127.3 &#10;&#9;&#9;&#9;&#9;&#9;" id="el_60Uh6hh6Cv3"/>
		<path d="M351.7,118.4h-17.8c-1.2,0-2.2,1-2.2,2.2c0,1.2,1,2.2,2.2,2.2h17.8c1.2,0,2.2-1,2.2-2.2&#10;&#9;&#9;&#9;C353.9,119.4,352.9,118.4,351.7,118.4z" id="el_Ltg4_3Q3HKG"/>
	</g>
</g>
<g id="el_JdvFzQ40NuJ">
	<path id="el_3Vy21VE5ldc" d="M211.3,118.4H189c-2.4,0-4.4,2.2-4.4,4.9c0,2.7,2,4.9,4.4,4.9V253c0,6.8,5,12.2,11.1,12.2&#10;&#9;&#9;s11.1-5.5,11.1-12.2V128.2c2.4,0,4.4-2.2,4.4-4.9C215.7,120.6,213.7,118.4,211.3,118.4z"/>
	<path id="el_ye2Xu3rxXh5" d="M206.8,254.2v-64.6h-13.4v64.6c0,3.7,3,6.7,6.7,6.7l0,0C203.8,260.9,206.8,257.9,206.8,254.2z"/>
	<path id="el_pkSFKb08Q-J" d="M200.1,260.9L200.1,260.9c-3.7,0-6.7-3-6.7-6.7v-46.8h13.4v46.8&#10;&#9;&#9;C206.8,257.9,203.8,260.9,200.1,260.9z"/>
	<path id="el_Ts77QU32e6Q" d="M200.1,260.9L200.1,260.9c-3.7,0-6.7-3-6.7-6.7v-37.8h13.4v37.8&#10;&#9;&#9;C206.8,257.9,203.8,260.9,200.1,260.9z"/>
	<g id="el_7Hdv1cURu40">
		<path d="M209,118.4h-17.8c-1.2,0-2.2,1-2.2,2.2c0,1.2,1,2.2,2.2,2.2H209c1.2,0,2.2-1,2.2-2.2&#10;&#9;&#9;&#9;C211.2,119.4,210.2,118.4,209,118.4z" id="el_U_8lcblGmau"/>
		<polygon points="193.4,185.2 193.4,207.4 206.8,207.4 206.8,185.2 206.8,127.3 193.4,127.3 &#9;&#9;" id="el_BvR8w6-vETp"/>
	</g>
</g>
<g id="el_zt2x5CeDdIv">
	<path id="el_VF0A6GSy9Qg" d="M259.2,118.4h-22.3c-2.4,0-4.4,2.2-4.4,4.9c0,2.7,2,4.9,4.4,4.9V253c0,6.8,5,12.2,11.1,12.2&#10;&#9;&#9;s11.1-5.5,11.1-12.2V128.2c2.4,0,4.4-2.2,4.4-4.9C263.7,120.6,261.7,118.4,259.2,118.4z"/>
	<path id="el_RKOlA6BlUi4" d="M254.7,254.2v-64.6h-13.4v64.6c0,3.7,3,6.7,6.7,6.7l0,0C251.7,260.9,254.7,257.9,254.7,254.2z"/>
	<path id="el_9B3whQxXtFk" d="M248,260.9L248,260.9c-3.7,0-6.7-3-6.7-6.7v-46.8h13.4v46.8C254.7,257.9,251.7,260.9,248,260.9&#10;&#9;&#9;z"/>
	<path id="el_NgNZZbuQALP" d="M248,260.9L248,260.9c-3.7,0-6.7-3-6.7-6.7v-37.8h13.4v37.8C254.7,257.9,251.7,260.9,248,260.9&#10;&#9;&#9;z"/>
	<polygon points="241.3,127.3 241.3,178.9 241.3,185.2 241.3,207.4 254.6,207.4 254.6,194.7 254.7,194.7 254.7,185.2 &#10;&#9;&#9;254.7,180.6 254.7,127.3 &#9;" id="el_NB2LvkLyLGL"/>
	<path d="M256.9,118.4h-17.8c-1.2,0-2.2,1-2.2,2.2c0,1.2,1,2.2,2.2,2.2h17.8c1.2,0,2.2-1,2.2-2.2&#10;&#9;&#9;C259.2,119.4,258.1,118.4,256.9,118.4z" id="el_ANJvUUrKV0e"/>
</g>
<g id="el_7Fb0Rr_LtQ1">
	<path id="el_2HOzvo2onyu" d="M306.6,118.4h-22.3c-2.4,0-4.4,2.2-4.4,4.9c0,2.7,2,4.9,4.4,4.9V253c0,6.8,5,12.2,11.1,12.2&#10;&#9;&#9;s11.1-5.5,11.1-12.2V128.2c2.4,0,4.4-2.2,4.4-4.9C311,120.6,309,118.4,306.6,118.4z"/>
	<path id="el_OmxZL6ZmfTR" d="M294.8,260.9L294.8,260.9c-3.7,0-6.7-3-6.7-6.7v-64.6h13.4v64.6&#10;&#9;&#9;C301.4,257.9,298.4,260.9,294.8,260.9z"/>
	<path id="el_BaOJw6D1w-V" d="M294.8,260.9L294.8,260.9c-3.7,0-6.7-3-6.7-6.7v-46.8h13.4v46.8&#10;&#9;&#9;C301.4,257.9,298.4,260.9,294.8,260.9z"/>
	<path id="el_6HCsmJSocKJ" d="M294.8,260.9L294.8,260.9c-3.7,0-6.7-3-6.7-6.7v-37.8h13.4v37.8&#10;&#9;&#9;C301.4,257.9,298.4,260.9,294.8,260.9z"/>
	<polygon points="288.1,127.3 288.1,180.4 288.1,185.2 288.1,207.4 301.4,207.4 301.4,204.4 301.4,204.4 301.4,185.2 &#10;&#9;&#9;301.4,179.9 301.4,127.3 &#9;" id="el_Ys5H4stnrFJ"/>
	<path d="M303.6,118.4h-17.8c-1.2,0-2.2,1-2.2,2.2c0,1.2,1,2.2,2.2,2.2h17.8c1.2,0,2.2-1,2.2-2.2&#10;&#9;&#9;C305.9,119.4,304.9,118.4,303.6,118.4z" id="el_t05oXiSdlgx"/>
</g>
<g id="el_sgT39T2e8Ah">
	<g id="el_t8fMGY8A_6L">
		<path id="el_OaP5lesvZkd" d="M124,287.9c-3.2,2.7-7.2,4.1-11.4,4.1H38.7c-4.2,0-8.2-1.4-11.4-4.1&#10;&#9;&#9;&#9;C10.6,274,0,253.1,0,229.7C0,201,16,176,39.6,163.2c8.6-4.7,13.8-13.8,13.8-23.5v-39.4c-2.6-0.9-4.4-3.4-4.4-6.3l0,0&#10;&#9;&#9;&#9;c0-3.7,3-6.7,6.7-6.7h40.1c3.7,0,6.7,3,6.7,6.7l0,0c0,2.9-1.9,5.4-4.4,6.3v39.6c0,9.7,5.2,18.7,13.8,23.4&#10;&#9;&#9;&#9;c23.2,12.6,39.1,37,39.6,65.1C151.8,252.3,141.1,273.8,124,287.9z"/>
		<path id="el_hT3c0w9QeZE" d="M107.6,171.6c20.5,11.2,34.6,32.9,34.8,57.8c0.2,20.3-8.6,38.5-22.6,50.9&#10;&#9;&#9;&#9;c-1.8,1.5-4,2.4-6.3,2.4H37.8c-2.3,0-4.6-0.8-6.3-2.4C17.6,268,8.9,250.1,8.9,230.2c0-25.2,14-47.2,34.7-58.6&#10;&#9;&#9;&#9;c11.5-6.3,18.8-18.2,18.8-31.3v-35.2c0-2.4,2-4.4,4.4-4.4h17.8c2.4,0,4.4,2,4.4,4.4v35.5C89,153.6,96.2,165.4,107.6,171.6z&#10;&#9;&#9;&#9; M93.5,91.7L93.5,91.7c0-2.4-2-4.4-4.4-4.4H62.3c-2.4,0-4.4,2-4.4,4.4l0,0c0,2.4,2,4.4,4.4,4.4H89C91.5,96.2,93.5,94.2,93.5,91.7z&#10;&#9;&#9;&#9;"/>
	</g>
</g>
<g id="el_3YzXw8xv3cE">
	<rect x="73.2" y="39" width="117.4" height="5.2" id="el_JAeOd5bIiMe"/>
	<g id="el_tOZWZ9V0CU0">
		<rect x="202.5" y="21.1" width="151.4" height="53.6" id="el_PIH1OFy-iYU"/>
		<rect x="189.3" y="21.1" width="13.2" height="53.6" id="el_q3TXITSX46r"/>
		<rect x="198.7" y="21.1" width="3.8" height="53.6" id="el_jnbZT0KzmBM"/>
		<g id="el_GCJDCg8KE72">
			<line x1="277.5" y1="0" x2="277.5" y2="-1.9" id="el_-4-hhcbqz55"/>
			<line x1="297.4" y1="-1.9" x2="297.4" y2="0" id="el_zQgY_G3BhhA"/>
		</g>
		<rect x="180.5" y="74.7" width="190.3" height="9.6" id="el_a-mrhR4qGIB"/>
		<rect x="166.1" y="74.7" width="22.7" height="9.6" id="el_rCpmiNOauu8"/>
		<g id="el_8g9Mq2eXBE_">
			<rect x="188.3" y="84.3" width="10" height="18" id="el_02k8j5kdj0v"/>
			<rect x="198.3" y="84.3" width="13.6" height="18" id="el_SvMsRqT2FbS"/>
		</g>
		<g id="el_oPq4cDQw8bJ">
			<rect x="177" y="102.3" width="19.6" height="7.2" id="el_OhFH2R7CGk6"/>
			<rect x="196.6" y="102.3" width="26.7" height="7.2" id="el_zVjGOEzY41J"/>
		</g>
	</g>
	<g id="el_yzAC8ItGGCX">
		<rect x="236.3" y="84.3" width="10" height="18" id="el_ExImBoecjcP"/>
		<rect x="246.3" y="84.3" width="13.6" height="18" id="el_gmceJw-JIXp"/>
	</g>
	<g id="el_pcvTVk3swT5">
		<rect x="224.9" y="102.3" width="19.6" height="7.2" id="el_4MFQFJmzlmW"/>
		<rect x="244.5" y="102.3" width="26.7" height="7.2" id="el_2BTRVJp41va"/>
	</g>
	<g id="el_shPdJ5xiydA">
		<rect x="283" y="84.3" width="10" height="18" id="el_n5nXlopTFV0"/>
		<rect x="293" y="84.3" width="13.6" height="18" id="el_2R2tXC98WBK"/>
	</g>
	<g id="el_J-kQtbWHXlt">
		<rect x="273.1" y="102.3" width="19.6" height="7.2" id="el_mveHBm8daaA"/>
		<rect x="292.7" y="102.3" width="26.7" height="7.2" id="el_SYrOJqD04KD"/>
	</g>
	<g id="el_scAmXXQT3ce">
		<rect x="331.7" y="84.3" width="10" height="18" id="el_kEzWmqVNi3j"/>
		<rect x="341.7" y="84.3" width="13.6" height="18" id="el_ikv8WffSxrs"/>
	</g>
	<g id="el_J5PRN-ETCOQ">
		<rect x="322.2" y="102.3" width="19.6" height="7.2" id="el_GejuM74GMTh"/>
		<rect x="341.8" y="102.3" width="26.7" height="7.2" id="el_vmq1dzD3KrF"/>
	</g>
</g>
<g id="el_kuhOxHUN2FQ">
	<path id="el_yZDC2VyqITf" d="M170.9,256.4v-57.9H162v66.8l0,0C166.9,265.3,170.9,261.4,170.9,256.4z"/>
	<path id="el_hbRAUIubIkF" d="M377.1,256.4v-57.9h-8.9v66.8l0,0C373.1,265.3,377.1,261.4,377.1,256.4z"/>
	<path d="M389.1,274.2h-5.5v-75.7h5.5c6.1,0,11.1-4,11.1-8.9s-5-8.9-11.1-8.9h-30.8c0,2.4-2,4.4-4.4,4.4h-22.3&#10;&#9;&#9;c-2.4,0-4.4-2-4.4-4.4h-16.8c0,2.4-2,4.4-4.4,4.4h-22.3c-2.4,0-4.4-2-4.4-4.4h-15.6c0,2.4-2,4.4-4.4,4.4h-22.3&#10;&#9;&#9;c-2.4,0-4.4-2-4.4-4.4h-15.6c0,2.4-2,4.4-4.4,4.4h-22.3c-2.4,0-4.4-2-4.4-4.4h-29.3c-6.1,0-11.1,4-11.1,8.9s5,8.9,11.1,8.9h5.6&#10;&#9;&#9;v75.7h-5.5c-6.1,0-11.1,4-11.1,8.9c0,4.9,5,8.9,11.1,8.9h5.5h22.2h177.3h22.2h5.5c6.1,0,11.1-4,11.1-8.9&#10;&#9;&#9;C400.2,278.2,395.2,274.2,389.1,274.2z M368.2,274.2H176.6v-75.7h191.6V274.2z" id="el_9mCPSAJ2YPR"/>
	<path d="M389.1,180.7h-30.8c0,2.4-2,4.4-4.4,4.4h-22.3c-2.4,0-4.4-2-4.4-4.4h-16.8c0,2.4-2,4.4-4.4,4.4h-22.3&#10;&#9;&#9;c-2.4,0-4.4-2-4.4-4.4h-15.6c0,2.4-2,4.4-4.4,4.4h-22.3c-2.4,0-4.4-2-4.4-4.4h-15.6c0,2.4-2,4.4-4.4,4.4h-22.3&#10;&#9;&#9;c-2.4,0-4.4-2-4.4-4.4h-29.3c-6.1,0-11.1,4-11.1,8.9h254.8C400.2,184.7,395.2,180.7,389.1,180.7z" id="el_2RwG5LPpPxH"/>
	<path id="el_2OA2fRM01U4" d="M156.5,274.2h232.7c6.1,0,11.1,4,11.1,8.9H145.4C145.4,278.2,150.4,274.2,156.5,274.2z"/>
	<path id="el_fmESn97HpsS" d="M170.9,256.4v-57.9H162v66.8l0,0C166.9,265.3,170.9,261.4,170.9,256.4z"/>
	<path id="el_LvRsoeG8iYk" d="M377.1,256.4v-57.9h-8.9v66.8l0,0C373.1,265.3,377.1,261.4,377.1,256.4z"/>
</g>
<g id="el_3efO6T2NFOL">
	<path id="el_sBK1URYVqbP" d="M219.8,245.3h-33.4v-11.1h33.4V245.3z M336.7,234.1h-33.4v11.2h33.4V234.1z M453.5,234.1&#10;&#9;&#9;h-33.4v11.2h33.4V234.1z"/>
	<path id="el_kUX45uekKlq" d="M573.5,234.1h-33.4v11.2h33.4V234.1z"/>
</g>
<path d="M78.9,44.1c0.6-0.7,1-1.5,1-2.4c0-2.1-1.9-3.8-4.2-3.8s-4.2,1.7-4.2,3.8c0,0.9,0.4,1.8,1,2.4&#10;&#9;c-7.8,1.4-13.8,7.6-13.8,15.1v25.7c0,0.5,0.4,0.8,0.9,0.8s0.9-0.4,0.9-0.8V59.2c0-6.6,5.1-12.1,12-13.4c-0.5,0.7-1,1.7-1.5,2.9&#10;&#9;c-1,2.8-1.6,6.6-1.6,10.5v25.7c0,0.5,0.4,0.8,0.9,0.8c0.5,0,0.9-0.4,0.9-0.8V59.2c0-8.5,2.6-13.7,4.5-13.7s4.5,5.2,4.5,13.7v25.7&#10;&#9;c0,0.5,0.4,0.8,0.9,0.8s0.9-0.4,0.9-0.8V59.2c0-4-0.6-7.7-1.6-10.5c-0.4-1.2-0.9-2.1-1.5-2.9c6.8,1.3,12,6.8,12,13.4v25.7&#10;&#9;c0,0.5,0.4,0.8,0.9,0.8c0.5,0,0.9-0.4,0.9-0.8V59.2C92.7,51.7,86.7,45.5,78.9,44.1z M73.3,41.7c0-1.2,1.1-2.1,2.4-2.1&#10;&#9;c1.3,0,2.4,1,2.4,2.1s-1.1,2.1-2.4,2.1C74.4,43.9,73.3,42.9,73.3,41.7z" id="el_Lw2LGzbh-l7"/>
<rect x="58.7" y="85" width="34" height="3.5" id="el_riri1Ofid8N"/>
<path d="M93,85.7H58.4c-0.5,0-0.9-0.3-0.9-0.8s0.4-0.8,0.9-0.8H93c0.5,0,0.9,0.3,0.9,0.8S93.5,85.7,93,85.7z" id="el_ThuevivNG0J"/>
<path d="M347.2,32.6c0,2.2-1.6,6.7-3.8,6.7h-14.7c-2.2,0-3.8-4.5-3.8-6.7l0,0c0-2.2,1.6-3.8,3.8-3.8h15&#10;&#9;C345.6,28.7,347.2,30.3,347.2,32.6L347.2,32.6z" id="el_7shc_OK5sTD"/>
<path d="M347.2,32.6c0,2.2-1.6,3.8-3.8,3.8h-14.7c-2.2,0-3.8-1.6-3.8-3.8l0,0c0-2.2,1.6-3.8,3.8-3.8h15&#10;&#9;C345.6,28.7,347.2,30.3,347.2,32.6L347.2,32.6z" id="el_DKRaKoBYz4_"/>
<path d="M343.6,28.1h-15c-1.6,0-3.2,1.6-3.5,3.2c0.3,1.6,1.9,2.9,3.5,2.9h15c1.6,0,3.2-1.3,3.5-2.9&#10;&#9;C346.5,29.7,345.2,28.1,343.6,28.1z" id="el_PIMIgYIxfCV"/>
<path d="M343.6,28.7h-15c-1.6,0-3.2,1.3-3.5,2.9c0.3,1.6,1.9,2.9,3.5,2.9h15c1.6,0,3.2-1.3,3.5-2.9&#10;&#9;C346.5,29.7,345.2,28.7,343.6,28.7z" id="el_pzKPNQe6UTQ"/>
<path d="M328.6,34.2h15c1.6,0,3.2-1.3,3.5-2.9c-0.3-1.6-1.9-2.9-3.5-2.9" id="el_xqteO3ZDgF1"/>
<path d="M347.3,62.5c0,2.2-1.6,6.7-3.8,6.7h-14.7c-2.2,0-3.8-4.5-3.8-6.7l0,0c0-2.2,1.6-3.8,3.8-3.8h15&#10;&#9;C345.7,58.6,347.3,60.2,347.3,62.5L347.3,62.5z" id="el_tiX2CfkFCm0"/>
<path d="M347.3,62.5c0,2.2-1.6,3.8-3.8,3.8h-14.7c-2.2,0-3.8-1.6-3.8-3.8l0,0c0-2.2,1.6-3.8,3.8-3.8h15&#10;&#9;C345.7,58.6,347.3,60.2,347.3,62.5L347.3,62.5z" id="el_ODJQH4L60YR"/>
<path d="M343.8,58h-15c-1.6,0-3.2,1.6-3.5,3.2c0.3,1.6,1.9,2.9,3.5,2.9h15c1.6,0,3.2-1.3,3.5-2.9&#10;&#9;C346.7,59.6,345.4,58,343.8,58z" id="el_mOkF2PF7vH5"/>
<path d="M343.8,58.6h-15c-1.6,0-3.2,1.3-3.5,2.9c0.3,1.6,1.9,2.9,3.5,2.9h15c1.6,0,3.2-1.3,3.5-2.9&#10;&#9;C346.7,59.6,345.4,58.6,343.8,58.6z" id="el_NZW04agYeUs"/>
<path d="M328.8,64.1h15c1.6,0,3.2-1.3,3.5-2.9c-0.3-1.6-1.9-2.9-3.5-2.9" id="el_M55CP_xfWfF"/>
<path d="M347.5,47.4c0,2.2-1.6,6.7-3.8,6.7h-14.7c-2.2,0-3.8-4.5-3.8-6.7l0,0c0-2.2,1.6-3.8,3.8-3.8h15&#10;&#9;C345.9,43.6,347.5,45.2,347.5,47.4L347.5,47.4z" id="el_x1sRF2ggQaH"/>
<path d="M347.5,47.4c0,2.2-1.6,3.8-3.8,3.8h-14.7c-2.2,0-3.8-1.6-3.8-3.8l0,0c0-2.2,1.6-3.8,3.8-3.8h15&#10;&#9;C345.9,43.6,347.5,45.2,347.5,47.4L347.5,47.4z" id="el_G4gHTGSeUkc"/>
<path d="M344,43h-15c-1.6,0-3.2,1.6-3.5,3.2c0.3,1.6,1.9,2.9,3.5,2.9h15c1.6,0,3.2-1.3,3.5-2.9&#10;&#9;C346.8,44.9,345.6,43,344,43z" id="el_RAkr7hhnCKW"/>
<path d="M344,43.6h-15c-1.6,0-3.2,1.3-3.5,2.9c0.3,1.6,1.9,2.9,3.5,2.9h15c1.6,0,3.2-1.3,3.5-2.9&#10;&#9;C346.8,44.9,345.6,43.6,344,43.6z" id="el_aBjuLDtGu2X"/>
<path d="M328.9,49h15c1.6,0,3.2-1.3,3.5-2.9c-0.3-1.6-1.9-2.9-3.5-2.9" id="el_A7qiu6_Jpvr"/>
<script>(function(){var a=document.querySelector('#el_LhhZ6KNxd'),b=a.querySelectorAll('style'),c=function(d){b.forEach(function(f){var g=f.textContent;g&amp;&amp;(f.textContent=g.replace(/transform-box:[^;\r\n]*/gi,'transform-box: '+d))})};c('initial'),window.requestAnimationFrame(function(){return c('fill-box')})})();</script></svg>